G04*
G04 #@! TF.GenerationSoftware,Altium Limited,Altium Designer,20.2.6 (244)*
G04*
G04 Layer_Color=16711935*
%FSLAX24Y24*%
%MOIN*%
G70*
G04*
G04 #@! TF.SameCoordinates,51859F98-D9B2-4489-9200-0AB67A10A6FC*
G04*
G04*
G04 #@! TF.FilePolarity,Positive*
G04*
G01*
G75*
%ADD106C,0.0039*%
%ADD107C,0.0059*%
%ADD108C,0.0004*%
D106*
X33659Y19605D02*
G03*
X33659Y19605I-100J0D01*
G01*
X21795Y32596D02*
G03*
X21795Y32596I-100J0D01*
G01*
X23989Y32526D02*
G03*
X23989Y32526I-100J0D01*
G01*
X24561Y18614D02*
Y19126D01*
X23379Y18614D02*
Y19126D01*
X24561D01*
X23379Y18614D02*
X24561D01*
X33359Y19405D02*
Y20035D01*
Y19405D02*
X34541D01*
Y20035D01*
X33359D02*
X34541D01*
X21495Y32396D02*
Y33026D01*
Y32396D02*
X22677D01*
Y33026D01*
X21495D02*
X22677D01*
X23689Y32326D02*
Y32956D01*
Y32326D02*
X24871D01*
Y32956D01*
X23689D02*
X24871D01*
X33589Y36741D02*
X34771D01*
X33589Y37253D02*
X34771D01*
X33589Y36741D02*
Y37253D01*
X34771Y36741D02*
Y37253D01*
D107*
X30027Y25059D02*
G03*
X30027Y25059I-197J0D01*
G01*
X29830Y24396D02*
X32614Y27180D01*
X27046D02*
X29830Y29964D01*
X27046Y27180D02*
X29830Y24396D01*
Y29964D02*
X32614Y27180D01*
D108*
X33510Y24971D02*
X33955Y24526D01*
X33732Y25194D02*
X34178Y24748D01*
X29524Y17410D02*
Y18040D01*
X29839Y17410D02*
Y18040D01*
X28085Y19435D02*
Y20065D01*
X28400Y19435D02*
Y20065D01*
X24726Y33890D02*
Y34520D01*
X24411Y33890D02*
Y34520D01*
X31929Y30870D02*
X32374Y31315D01*
X31706Y31092D02*
X32152Y31538D01*
X33619Y29260D02*
X34064Y29705D01*
X33396Y29482D02*
X33842Y29928D01*
X33755Y30665D02*
X34385D01*
X33755Y30980D02*
X34385D01*
X34356Y20900D02*
Y21530D01*
X34041Y20900D02*
Y21530D01*
X33555Y17853D02*
Y18482D01*
X33870Y17853D02*
Y18482D01*
X34104Y17850D02*
Y18480D01*
X34419Y17850D02*
Y18480D01*
X24195Y33895D02*
Y34525D01*
X23880Y33895D02*
Y34525D01*
X26110Y30051D02*
X26555Y29606D01*
X26332Y30274D02*
X26778Y29828D01*
X25976Y29914D02*
X26421Y29469D01*
X25753Y29692D02*
X26198Y29246D01*
X21966Y33920D02*
Y34550D01*
X21651Y33920D02*
Y34550D01*
X22506Y33920D02*
Y34550D01*
X22191Y33920D02*
Y34550D01*
X22214Y30890D02*
Y31520D01*
X22529Y30890D02*
Y31520D01*
X21694Y30900D02*
Y31530D01*
X22009Y30900D02*
Y31530D01*
X24465Y30875D02*
Y31505D01*
X24780Y30875D02*
Y31505D01*
X23935Y30875D02*
Y31505D01*
X24250Y30875D02*
Y31505D01*
X30034Y17410D02*
Y18040D01*
X30349Y17410D02*
Y18040D01*
X31796Y19490D02*
Y20120D01*
X31481Y19490D02*
Y20120D01*
X33806Y20895D02*
Y21525D01*
X33491Y20895D02*
Y21525D01*
X31378Y22763D02*
X31823Y22318D01*
X31600Y22986D02*
X32046Y22540D01*
X27528Y22837D02*
X27973Y23282D01*
X27750Y22614D02*
X28196Y23060D01*
X33880Y25331D02*
X34325Y24886D01*
X34102Y25554D02*
X34548Y25108D01*
M02*
