M48
;Layer_Color=9474304
;FILE_FORMAT=2:4
INCH,LZ
;TYPE=PLATED
T1F00S00C0.0120
T2F00S00C0.0197
T3F00S00C0.0276
T4F00S00C0.0400
T5F00S00C0.1181
;TYPE=NON_PLATED
T6F00S00C0.0217
T7F00S00C0.0335
%
T01
X01867Y01562
X02035Y01479
X03929Y01494
X03921Y016
X03916Y01683
X03809Y01712
X03785Y0185
X03776Y02064
X03891Y02222
X03533Y02243
X03541Y02168
X03511Y02112
X035267Y019866
X03496Y01805
X03592
X03271Y01922
X03309Y0202
X03346Y02281
X03377Y02373
X03511Y02439
X03557Y02314
X033079Y02506
X03278Y025528
X03276Y025875
X03381Y026123
X035141Y02723
X03559Y02821
X036386Y02858
X036807Y02756
X03805Y02781
X03811Y02559
X03921Y02587
X0386Y02971
X03859Y0306
X03178Y03005
X031636Y02976
X031653Y02759
X03147Y02714
X03155Y02661
X04054Y017466
X030344Y01844
X03122Y01982
X03028Y02088
X029868Y02112
X029528Y02069
X02894Y02034
X02862Y02102
Y02147
X02804Y02171
X02782Y02133
X027093Y020617
X02732Y02034
X02661Y02156
X029Y02195
X029343Y024293
X02954Y02586
X02904Y026
X02889Y02675
X02872Y027
X02914Y02738
X02929Y02776
X0286Y02774
X028017
X02698Y02735
X02699Y02686
X026684Y02661
X026464Y02742
X02689Y02853
X027239Y028459
X02741Y028784
X02786Y02919
X02653Y02901
X02754Y03069
X02973Y029755
X03001Y02907
X02979Y02855
X02906Y02873
X03057Y02882
X03091Y03004
X03014Y027671
X03101Y02668
X03085Y02603
X03012Y02578
X03024Y02528
X02829Y02635
X027266Y02559
X02452Y02609
X024186Y024326
X02272Y02322
X02114Y02271
X02069Y02302
X02116Y02168
X02158Y0218
X021Y02073
X02232Y02067
X02359Y01927
X02561Y01785
X02716Y018073
X02708Y018587
X02744Y0159
X01872Y01611
X01894Y0165
X01886Y01772
X01876Y0218
X01902Y02648
X01899Y02723
Y02793
X022179Y028281
X02213Y02942
X02328Y0299
X02444Y03056
X0278Y03189
X0301Y0329
X02973Y0343
X02902Y03426
X02534Y0352
X02525Y03588
X02449Y03589
X02312Y03649
X02184Y03678
X02Y03761
X03231Y0322
X03437Y0328
X03513Y03277
X03477Y03185
X03679Y03245
X03859Y03253
X03863Y03165
X04043Y0321
X0405Y03277
X04001Y03454
X03916Y03527
X03867Y03583
X03783Y03344
X03535Y03398
X04147Y0375
T02
X040377Y026151
Y027731
T03
X026266Y03234
X027053
X02784
X028628
X029415
X030203
X03099
X030985Y03378
X030197
X02941
X028623
X027835
X027048
X02626
X031772
X031777Y03234
T04
X02173Y01484
X02273
X02373
X02473
X02573
Y01584
Y01684
X02473
Y01584
X02373
Y01684
X02273
Y01584
X02173
Y01684
X01994Y03112
X01894
Y03212
Y03312
Y03412
Y03512
X01994
Y03412
Y03312
Y03212
T05
X019575Y015415
X040648Y0156
X0196Y03665
X04082Y03666
T06
X04166Y017281
Y01795
T07
X040467Y030584
Y033734
M30
