G04*
G04 #@! TF.GenerationSoftware,Altium Limited,Altium Designer,20.2.6 (244)*
G04*
G04 Layer_Color=128*
%FSLAX24Y24*%
%MOIN*%
G70*
G04*
G04 #@! TF.SameCoordinates,51859F98-D9B2-4489-9200-0AB67A10A6FC*
G04*
G04*
G04 #@! TF.FilePolarity,Positive*
G04*
G01*
G75*
%ADD110C,0.0020*%
D110*
X31640Y32340D02*
X31915D01*
X31777Y32202D02*
Y32478D01*
X30852Y32340D02*
X31128D01*
X30990Y32202D02*
Y32478D01*
X30065Y32340D02*
X30340D01*
X30203Y32202D02*
Y32478D01*
X29277Y32340D02*
X29553D01*
X29415Y32202D02*
Y32478D01*
X28490Y32340D02*
X28766D01*
X28628Y32202D02*
Y32478D01*
X27703Y32340D02*
X27978D01*
X27840Y32202D02*
Y32478D01*
X26128Y32340D02*
X26403D01*
X26266Y32202D02*
Y32478D01*
X26915Y32340D02*
X27191D01*
X27053Y32202D02*
Y32478D01*
X31634Y33780D02*
X31910D01*
X31772Y33642D02*
Y33918D01*
X30847Y33780D02*
X31123D01*
X30985Y33642D02*
Y33918D01*
X30060Y33780D02*
X30335D01*
X30197Y33642D02*
Y33918D01*
X29272Y33780D02*
X29548D01*
X29410Y33642D02*
Y33918D01*
X28485Y33780D02*
X28760D01*
X28623Y33642D02*
Y33918D01*
X27697Y33780D02*
X27973D01*
X27835Y33642D02*
Y33918D01*
X26123Y33780D02*
X26398D01*
X26260Y33642D02*
Y33918D01*
X26910Y33780D02*
X27186D01*
X27048Y33642D02*
Y33918D01*
X19740Y35120D02*
X20140D01*
X19940Y34920D02*
Y35320D01*
X18740Y35120D02*
X19140D01*
X18940Y34920D02*
Y35320D01*
X19740Y34120D02*
X20140D01*
X19940Y33920D02*
Y34320D01*
X18740Y34120D02*
X19140D01*
X18940Y33920D02*
Y34320D01*
X19740Y33120D02*
X20140D01*
X19940Y32920D02*
Y33320D01*
X18740Y33120D02*
X19140D01*
X18940Y32920D02*
Y33320D01*
X19740Y32120D02*
X20140D01*
X19940Y31920D02*
Y32320D01*
X18740Y32120D02*
X19140D01*
X18940Y31920D02*
Y32320D01*
X19740Y31120D02*
X20140D01*
X19940Y30920D02*
Y31320D01*
X18740Y31120D02*
X19140D01*
X18940Y30920D02*
Y31320D01*
X25530Y14840D02*
X25930D01*
X25730Y14640D02*
Y15040D01*
X25530Y15840D02*
X25930D01*
X25730Y15640D02*
Y16040D01*
X25530Y16840D02*
X25930D01*
X25730Y16640D02*
Y17040D01*
X24530Y14840D02*
X24930D01*
X24730Y14640D02*
Y15040D01*
X24530Y15840D02*
X24930D01*
X24730Y15640D02*
Y16040D01*
X24530Y16840D02*
X24930D01*
X24730Y16640D02*
Y17040D01*
X23530Y14840D02*
X23930D01*
X23730Y14640D02*
Y15040D01*
X23530Y15840D02*
X23930D01*
X23730Y15640D02*
Y16040D01*
X23530Y16840D02*
X23930D01*
X23730Y16640D02*
Y17040D01*
X22530Y14840D02*
X22930D01*
X22730Y14640D02*
Y15040D01*
X22530Y15840D02*
X22930D01*
X22730Y15640D02*
Y16040D01*
X22530Y16840D02*
X22930D01*
X22730Y16640D02*
Y17040D01*
X21530Y14840D02*
X21930D01*
X21730Y14640D02*
Y15040D01*
X21530Y15840D02*
X21930D01*
X21730Y15640D02*
Y16040D01*
X21530Y16840D02*
X21930D01*
X21730Y16640D02*
Y17040D01*
X40300Y30584D02*
X40634D01*
X40467Y30417D02*
Y30752D01*
X40300Y33734D02*
X40634D01*
X40467Y33567D02*
Y33901D01*
X18984Y15415D02*
X20166D01*
X19575Y14824D02*
Y16006D01*
X40058Y15600D02*
X41239D01*
X40648Y15009D02*
Y16191D01*
X19009Y36650D02*
X20191D01*
X19600Y36059D02*
Y37241D01*
X40229Y36660D02*
X41411D01*
X40820Y36069D02*
Y37251D01*
X41552Y17281D02*
X41768D01*
X41660Y17172D02*
Y17389D01*
X41552Y17950D02*
X41768D01*
X41660Y17842D02*
Y18058D01*
X40279Y26151D02*
X40476D01*
X40377Y26052D02*
Y26249D01*
X40279Y27731D02*
X40476D01*
X40377Y27632D02*
Y27829D01*
X41410Y37500D02*
X41530D01*
X41470Y37440D02*
Y37560D01*
X39950Y34540D02*
X40070D01*
X40010Y34480D02*
Y34600D01*
X39100Y35270D02*
X39220D01*
X39160Y35210D02*
Y35330D01*
X38610Y35830D02*
X38730D01*
X38670Y35770D02*
Y35890D01*
X19940Y37610D02*
X20060D01*
X20000Y37550D02*
Y37670D01*
X25280Y35200D02*
X25400D01*
X25340Y35140D02*
Y35260D01*
X25190Y35880D02*
X25310D01*
X25250Y35820D02*
Y35940D01*
X24430Y35890D02*
X24550D01*
X24490Y35830D02*
Y35950D01*
X18610Y15620D02*
X18730D01*
X18670Y15560D02*
Y15680D01*
X20290Y14790D02*
X20410D01*
X20350Y14730D02*
Y14850D01*
X39230Y14940D02*
X39350D01*
X39290Y14880D02*
Y15000D01*
X39150Y16000D02*
X39270D01*
X39210Y15940D02*
Y16060D01*
X39100Y16830D02*
X39220D01*
X39160Y16770D02*
Y16890D01*
X40370Y32100D02*
X40490D01*
X40430Y32040D02*
Y32160D01*
X40440Y32770D02*
X40560D01*
X40500Y32710D02*
Y32830D01*
X38530Y32530D02*
X38650D01*
X38590Y32470D02*
Y32590D01*
X38570Y31650D02*
X38690D01*
X38630Y31590D02*
Y31710D01*
X38530Y30600D02*
X38650D01*
X38590Y30540D02*
Y30660D01*
X38540Y29710D02*
X38660D01*
X38600Y29650D02*
Y29770D01*
X18930Y27930D02*
X19050D01*
X18990Y27870D02*
Y27990D01*
X18930Y27230D02*
X19050D01*
X18990Y27170D02*
Y27290D01*
X18960Y26480D02*
X19080D01*
X19020Y26420D02*
Y26540D01*
X26470Y29010D02*
X26590D01*
X26530Y28950D02*
Y29070D01*
X26830Y28530D02*
X26950D01*
X26890Y28470D02*
Y28590D01*
X32650Y19220D02*
X32770D01*
X32710Y19160D02*
Y19280D01*
X30284Y18440D02*
X30404D01*
X30344Y18380D02*
Y18500D01*
X35050Y24390D02*
X35170D01*
X35110Y24330D02*
Y24450D01*
X33710Y23730D02*
X33830D01*
X33770Y23670D02*
Y23790D01*
X33400Y22810D02*
X33520D01*
X33460Y22750D02*
Y22870D01*
X28940Y21950D02*
X29060D01*
X29000Y21890D02*
Y22010D01*
X28960Y34260D02*
X29080D01*
X29020Y34200D02*
Y34320D01*
X29670Y34300D02*
X29790D01*
X29730Y34240D02*
Y34360D01*
X24460Y26090D02*
X24580D01*
X24520Y26030D02*
Y26150D01*
X21080Y22710D02*
X21200D01*
X21140Y22650D02*
Y22770D01*
X35510Y23140D02*
X35630D01*
X35570Y23080D02*
Y23200D01*
X38030Y17120D02*
X38150D01*
X38090Y17060D02*
Y17180D01*
X33019Y25060D02*
X33139D01*
X33079Y25000D02*
Y25120D01*
X31576Y29760D02*
X31696D01*
X31636Y29700D02*
Y29820D01*
X23220Y29900D02*
X23340D01*
X23280Y29840D02*
Y29960D01*
X35070Y32770D02*
X35190D01*
X35130Y32710D02*
Y32830D01*
X30080Y27671D02*
X30200D01*
X30140Y27611D02*
Y27731D01*
X27800Y29190D02*
X27920D01*
X27860Y29130D02*
Y29250D01*
X35290Y33980D02*
X35410D01*
X35350Y33920D02*
Y34040D01*
X30040Y32900D02*
X30160D01*
X30100Y32840D02*
Y32960D01*
X29950Y29070D02*
X30070D01*
X30010Y29010D02*
Y29130D01*
X34310Y32800D02*
X34430D01*
X34370Y32740D02*
Y32860D01*
X24380Y30560D02*
X24500D01*
X24440Y30500D02*
Y30620D01*
X35860Y18050D02*
X35980D01*
X35920Y17990D02*
Y18110D01*
X27033Y20617D02*
X27153D01*
X27093Y20557D02*
Y20677D01*
X35207Y19866D02*
X35327D01*
X35267Y19806D02*
Y19926D01*
X29468Y20690D02*
X29588D01*
X29528Y20630D02*
Y20750D01*
X28560Y21020D02*
X28680D01*
X28620Y20960D02*
Y21080D01*
X28560Y21470D02*
X28680D01*
X28620Y21410D02*
Y21530D01*
X38850Y22220D02*
X38970D01*
X38910Y22160D02*
Y22280D01*
X27206Y25590D02*
X27326D01*
X27266Y25530D02*
Y25650D01*
X32250Y32200D02*
X32370D01*
X32310Y32140D02*
Y32260D01*
X23060Y36490D02*
X23180D01*
X23120Y36430D02*
Y36550D01*
X21780Y36780D02*
X21900D01*
X21840Y36720D02*
Y36840D01*
X26404Y27420D02*
X26524D01*
X26464Y27360D02*
Y27480D01*
X27179Y28459D02*
X27299D01*
X27239Y28399D02*
Y28519D01*
X34710Y31850D02*
X34830D01*
X34770Y31790D02*
Y31910D01*
X30510Y28820D02*
X30630D01*
X30570Y28760D02*
Y28880D01*
X35350Y21680D02*
X35470D01*
X35410Y21620D02*
Y21740D01*
X40480Y17466D02*
X40600D01*
X40540Y17406D02*
Y17526D01*
X23530Y19270D02*
X23650D01*
X23590Y19210D02*
Y19330D01*
X25550Y17850D02*
X25670D01*
X25610Y17790D02*
Y17910D01*
X24126Y24326D02*
X24246D01*
X24186Y24266D02*
Y24386D01*
X28980Y26000D02*
X29100D01*
X29040Y25940D02*
Y26060D01*
X35081Y27230D02*
X35201D01*
X35141Y27170D02*
Y27290D01*
X31410Y27140D02*
X31530D01*
X31470Y27080D02*
Y27200D01*
X22660Y23220D02*
X22780D01*
X22720Y23160D02*
Y23280D01*
X31593Y27590D02*
X31713D01*
X31653Y27530D02*
Y27650D01*
X21100Y21680D02*
X21220D01*
X21160Y21620D02*
Y21740D01*
X30060Y25780D02*
X30180D01*
X30120Y25720D02*
Y25840D01*
X21520Y21800D02*
X21640D01*
X21580Y21740D02*
Y21860D01*
X29480Y25860D02*
X29600D01*
X29540Y25800D02*
Y25920D01*
X20940Y20730D02*
X21060D01*
X21000Y20670D02*
Y20790D01*
X30180Y25280D02*
X30300D01*
X30240Y25220D02*
Y25340D01*
X28830Y26750D02*
X28950D01*
X28890Y26690D02*
Y26810D01*
X35530Y28210D02*
X35650D01*
X35590Y28150D02*
Y28270D01*
X29230Y27760D02*
X29350D01*
X29290Y27700D02*
Y27820D01*
X36730Y32450D02*
X36850D01*
X36790Y32390D02*
Y32510D01*
X28660Y27000D02*
X28780D01*
X28720Y26940D02*
Y27060D01*
X36326Y28580D02*
X36446D01*
X36386Y28520D02*
Y28640D01*
X35050Y21120D02*
X35170D01*
X35110Y21060D02*
Y21180D01*
X30220Y20880D02*
X30340D01*
X30280Y20820D02*
Y20940D01*
X26930Y26860D02*
X27050D01*
X26990Y26800D02*
Y26920D01*
X26920Y27350D02*
X27040D01*
X26980Y27290D02*
Y27410D01*
X26624Y26610D02*
X26744D01*
X26684Y26550D02*
Y26670D01*
X22070Y29420D02*
X22190D01*
X22130Y29360D02*
Y29480D01*
X37700Y20640D02*
X37820D01*
X37760Y20580D02*
Y20700D01*
X32700Y25875D02*
X32820D01*
X32760Y25815D02*
Y25935D01*
X27350Y28784D02*
X27470D01*
X27410Y28724D02*
Y28844D01*
X37770Y33440D02*
X37890D01*
X37830Y33380D02*
Y33500D01*
X37990Y27810D02*
X38110D01*
X38050Y27750D02*
Y27870D01*
X27957Y27740D02*
X28077D01*
X28017Y27680D02*
Y27800D01*
X34900Y18050D02*
X35020D01*
X34960Y17990D02*
Y18110D01*
X27260Y20340D02*
X27380D01*
X27320Y20280D02*
Y20400D01*
X27480Y30690D02*
X27600D01*
X27540Y30630D02*
Y30750D01*
X29080Y27380D02*
X29200D01*
X29140Y27320D02*
Y27440D01*
X37790Y18500D02*
X37910D01*
X37850Y18440D02*
Y18560D01*
X28880Y20340D02*
X29000D01*
X28940Y20280D02*
Y20400D01*
X27980Y21710D02*
X28100D01*
X28040Y21650D02*
Y21770D01*
X36747Y27560D02*
X36867D01*
X36807Y27500D02*
Y27620D01*
X30950Y26680D02*
X31070D01*
X31010Y26620D02*
Y26740D01*
X33030Y20200D02*
X33150D01*
X33090Y20140D02*
Y20260D01*
X31160Y19820D02*
X31280D01*
X31220Y19760D02*
Y19880D01*
X29808Y21120D02*
X29928D01*
X29868Y21060D02*
Y21180D01*
X35270Y22430D02*
X35390D01*
X35330Y22370D02*
Y22490D01*
X18660Y16110D02*
X18780D01*
X18720Y16050D02*
Y16170D01*
X18800Y17720D02*
X18920D01*
X18860Y17660D02*
Y17780D01*
X27760Y21330D02*
X27880D01*
X27820Y21270D02*
Y21390D01*
X32720Y25528D02*
X32840D01*
X32780Y25468D02*
Y25588D01*
X18880Y16500D02*
X19000D01*
X18940Y16440D02*
Y16560D01*
X22260Y20670D02*
X22380D01*
X22320Y20610D02*
Y20730D01*
X27380Y15900D02*
X27500D01*
X27440Y15840D02*
Y15960D01*
X28540Y27740D02*
X28660D01*
X28600Y27680D02*
Y27800D01*
X18700Y21800D02*
X18820D01*
X18760Y21740D02*
Y21860D01*
X29730Y28550D02*
X29850D01*
X29790Y28490D02*
Y28610D01*
X22119Y28281D02*
X22239D01*
X22179Y28221D02*
Y28341D01*
X29000Y28730D02*
X29120D01*
X29060Y28670D02*
Y28790D01*
X27740Y31890D02*
X27860D01*
X27800Y31830D02*
Y31950D01*
X30790Y26030D02*
X30910D01*
X30850Y25970D02*
Y26090D01*
X27100Y18073D02*
X27220D01*
X27160Y18013D02*
Y18133D01*
X27020Y18587D02*
X27140D01*
X27080Y18527D02*
Y18647D01*
X33750Y26123D02*
X33870D01*
X33810Y26063D02*
Y26183D01*
X26550Y21560D02*
X26670D01*
X26610Y21500D02*
Y21620D01*
X29283Y24293D02*
X29403D01*
X29343Y24233D02*
Y24353D01*
X20630Y23020D02*
X20750D01*
X20690Y22960D02*
Y23080D01*
X38050Y25590D02*
X38170D01*
X38110Y25530D02*
Y25650D01*
X31490Y26610D02*
X31610D01*
X31550Y26550D02*
Y26670D01*
X28230Y26350D02*
X28350D01*
X28290Y26290D02*
Y26410D01*
X39150Y25870D02*
X39270D01*
X39210Y25810D02*
Y25930D01*
X30850Y30040D02*
X30970D01*
X30910Y29980D02*
Y30100D01*
X31720Y30050D02*
X31840D01*
X31780Y29990D02*
Y30110D01*
X29670Y29755D02*
X29790D01*
X29730Y29695D02*
Y29815D01*
M02*
