G04*
G04 #@! TF.GenerationSoftware,Altium Limited,Altium Designer,20.2.6 (244)*
G04*
G04 Layer_Color=32768*
%FSLAX24Y24*%
%MOIN*%
G70*
G04*
G04 #@! TF.SameCoordinates,51859F98-D9B2-4489-9200-0AB67A10A6FC*
G04*
G04*
G04 #@! TF.FilePolarity,Positive*
G04*
G01*
G75*
G36*
X20040Y35020D02*
X19840D01*
Y35220D01*
X20040D01*
Y35020D01*
D02*
G37*
G36*
X19040D02*
X18840D01*
Y35220D01*
X19040D01*
Y35020D01*
D02*
G37*
G36*
X20040Y34020D02*
X19840D01*
Y34220D01*
X20040D01*
Y34020D01*
D02*
G37*
G36*
X19040D02*
X18840D01*
Y34220D01*
X19040D01*
Y34020D01*
D02*
G37*
G36*
X20040Y33020D02*
X19840D01*
Y33220D01*
X20040D01*
Y33020D01*
D02*
G37*
G36*
X19040D02*
X18840D01*
Y33220D01*
X19040D01*
Y33020D01*
D02*
G37*
G36*
X20040Y32020D02*
X19840D01*
Y32220D01*
X20040D01*
Y32020D01*
D02*
G37*
G36*
X19040D02*
X18840D01*
Y32220D01*
X19040D01*
Y32020D01*
D02*
G37*
G36*
X20040Y31020D02*
X19840D01*
Y31220D01*
X20040D01*
Y31020D01*
D02*
G37*
G36*
X19040D02*
X18840D01*
Y31220D01*
X19040D01*
Y31020D01*
D02*
G37*
G36*
X25830Y16740D02*
X25630D01*
Y16940D01*
X25830D01*
Y16740D01*
D02*
G37*
G36*
X24830D02*
X24630D01*
Y16940D01*
X24830D01*
Y16740D01*
D02*
G37*
G36*
X23830D02*
X23630D01*
Y16940D01*
X23830D01*
Y16740D01*
D02*
G37*
G36*
X22830D02*
X22630D01*
Y16940D01*
X22830D01*
Y16740D01*
D02*
G37*
G36*
X21830D02*
X21630D01*
Y16940D01*
X21830D01*
Y16740D01*
D02*
G37*
G36*
X25830Y15740D02*
X25630D01*
Y15940D01*
X25830D01*
Y15740D01*
D02*
G37*
G36*
X24830D02*
X24630D01*
Y15940D01*
X24830D01*
Y15740D01*
D02*
G37*
G36*
X23830D02*
X23630D01*
Y15940D01*
X23830D01*
Y15740D01*
D02*
G37*
G36*
X22830D02*
X22630D01*
Y15940D01*
X22830D01*
Y15740D01*
D02*
G37*
G36*
X21830D02*
X21630D01*
Y15940D01*
X21830D01*
Y15740D01*
D02*
G37*
G36*
X25830Y14740D02*
X25630D01*
Y14940D01*
X25830D01*
Y14740D01*
D02*
G37*
G36*
X24830D02*
X24630D01*
Y14940D01*
X24830D01*
Y14740D01*
D02*
G37*
G36*
X23830D02*
X23630D01*
Y14940D01*
X23830D01*
Y14740D01*
D02*
G37*
G36*
X22830D02*
X22630D01*
Y14940D01*
X22830D01*
Y14740D01*
D02*
G37*
G36*
X21830D02*
X21630D01*
Y14940D01*
X21830D01*
Y14740D01*
D02*
G37*
M02*
