G04*
G04 #@! TF.GenerationSoftware,Altium Limited,Altium Designer,20.2.6 (244)*
G04*
G04 Layer_Physical_Order=1*
G04 Layer_Color=255*
%FSLAX24Y24*%
%MOIN*%
G70*
G04*
G04 #@! TF.SameCoordinates,51859F98-D9B2-4489-9200-0AB67A10A6FC*
G04*
G04*
G04 #@! TF.FilePolarity,Positive*
G04*
G01*
G75*
%ADD15C,0.0080*%
G04:AMPARAMS|DCode=19|XSize=74.8mil|YSize=63mil|CornerRadius=15.7mil|HoleSize=0mil|Usage=FLASHONLY|Rotation=0.000|XOffset=0mil|YOffset=0mil|HoleType=Round|Shape=RoundedRectangle|*
%AMROUNDEDRECTD19*
21,1,0.0748,0.0315,0,0,0.0*
21,1,0.0433,0.0630,0,0,0.0*
1,1,0.0315,0.0217,-0.0157*
1,1,0.0315,-0.0217,-0.0157*
1,1,0.0315,-0.0217,0.0157*
1,1,0.0315,0.0217,0.0157*
%
%ADD19ROUNDEDRECTD19*%
%ADD20R,0.0866X0.0315*%
%ADD21R,0.0984X0.0925*%
%ADD22R,0.0236X0.0315*%
%ADD23R,0.0318X0.0340*%
%ADD24R,0.0630X0.1100*%
%ADD25R,0.0300X0.0300*%
%ADD26R,0.0315X0.0866*%
%ADD27R,0.0925X0.0984*%
G04:AMPARAMS|DCode=28|XSize=23.6mil|YSize=63mil|CornerRadius=0mil|HoleSize=0mil|Usage=FLASHONLY|Rotation=45.000|XOffset=0mil|YOffset=0mil|HoleType=Round|Shape=Rectangle|*
%AMROTATEDRECTD28*
4,1,4,0.0139,-0.0306,-0.0306,0.0139,-0.0139,0.0306,0.0306,-0.0139,0.0139,-0.0306,0.0*
%
%ADD28ROTATEDRECTD28*%

%ADD29R,0.0340X0.0318*%
G04:AMPARAMS|DCode=30|XSize=31.8mil|YSize=34mil|CornerRadius=0mil|HoleSize=0mil|Usage=FLASHONLY|Rotation=315.000|XOffset=0mil|YOffset=0mil|HoleType=Round|Shape=Rectangle|*
%AMROTATEDRECTD30*
4,1,4,-0.0233,-0.0008,0.0008,0.0233,0.0233,0.0008,-0.0008,-0.0233,-0.0233,-0.0008,0.0*
%
%ADD30ROTATEDRECTD30*%

%ADD31P,0.0424X4X180.0*%
%ADD32R,0.0433X0.0276*%
%ADD33R,0.1100X0.0630*%
%ADD34R,0.0300X0.0300*%
%ADD35R,0.0177X0.0394*%
%ADD36P,0.0424X4X270.0*%
%ADD37R,0.0709X0.0276*%
%ADD38R,0.0551X0.0472*%
%ADD39R,0.0866X0.0800*%
%ADD40R,0.0551X0.0630*%
%ADD41R,0.0315X0.0315*%
%ADD42R,0.0315X0.0354*%
%ADD43R,0.0394X0.0433*%
%ADD44R,0.0591X0.0531*%
%ADD45R,0.0551X0.0551*%
%ADD46R,0.0472X0.0157*%
%ADD47O,0.0240X0.0080*%
%ADD48O,0.0080X0.0240*%
%ADD49R,0.0138X0.0197*%
G04:AMPARAMS|DCode=50|XSize=9.8mil|YSize=61mil|CornerRadius=0mil|HoleSize=0mil|Usage=FLASHONLY|Rotation=225.000|XOffset=0mil|YOffset=0mil|HoleType=Round|Shape=Round|*
%AMOVALD50*
21,1,0.0512,0.0098,0.0000,0.0000,315.0*
1,1,0.0098,-0.0181,0.0181*
1,1,0.0098,0.0181,-0.0181*
%
%ADD50OVALD50*%

G04:AMPARAMS|DCode=51|XSize=9.8mil|YSize=61mil|CornerRadius=0mil|HoleSize=0mil|Usage=FLASHONLY|Rotation=135.000|XOffset=0mil|YOffset=0mil|HoleType=Round|Shape=Round|*
%AMOVALD51*
21,1,0.0512,0.0098,0.0000,0.0000,225.0*
1,1,0.0098,0.0181,0.0181*
1,1,0.0098,-0.0181,-0.0181*
%
%ADD51OVALD51*%

%ADD52R,0.0315X0.0197*%
%ADD95C,0.0197*%
%ADD96C,0.0240*%
%ADD97C,0.0120*%
%ADD98O,0.0400X0.0450*%
%ADD99R,0.0400X0.0400*%
%ADD100C,0.0740*%
%ADD101P,0.0801X8X292.5*%
%ADD102P,0.0801X8X202.5*%
%ADD103C,0.0335*%
%ADD104C,0.0669*%
G36*
X31766Y37850D02*
X31724Y37832D01*
X31670Y37791D01*
X31629Y37737D01*
X31603Y37675D01*
X31595Y37613D01*
X30928D01*
X30845Y37695D01*
X30792Y37731D01*
X30730Y37743D01*
X20840D01*
X20778Y37731D01*
X20725Y37695D01*
X20415Y37385D01*
X20379Y37332D01*
X20367Y37270D01*
Y36290D01*
X20379Y36228D01*
X20415Y36175D01*
X20525Y36065D01*
X20578Y36029D01*
X20640Y36017D01*
X21277D01*
Y34320D01*
X21289Y34258D01*
X21325Y34205D01*
X21560Y33969D01*
Y33700D01*
X21565D01*
X21586Y33650D01*
X21561Y33612D01*
X21551Y33559D01*
X21523D01*
Y32966D01*
X21901D01*
Y33508D01*
X21925Y33533D01*
X21961Y33586D01*
X21973Y33648D01*
Y33700D01*
X22060D01*
Y33700D01*
X22100D01*
Y33700D01*
X22600D01*
Y34200D01*
X22100D01*
Y34200D01*
X22060D01*
Y34200D01*
X21818D01*
X21807Y34215D01*
X21832Y34265D01*
X22061D01*
Y34265D01*
X22101D01*
Y34265D01*
X22301D01*
Y34515D01*
Y34765D01*
X22101D01*
Y34765D01*
X22061D01*
Y34765D01*
X21861D01*
Y34515D01*
X21761D01*
Y34765D01*
X21603D01*
Y36027D01*
X22640D01*
X22702Y36039D01*
X22708Y36043D01*
X22740Y36037D01*
X24000D01*
X24062Y36049D01*
X24115Y36085D01*
X24198Y36168D01*
X24234Y36221D01*
X24236Y36230D01*
X24342D01*
Y36770D01*
X24283D01*
X24245Y36799D01*
Y37239D01*
X25569D01*
X25967Y36841D01*
Y34830D01*
X25967Y34830D01*
X25978Y34776D01*
X26009Y34729D01*
X26418Y34321D01*
Y34080D01*
X26310D01*
Y33780D01*
X26260D01*
Y33730D01*
X25960D01*
Y33480D01*
X26118D01*
Y33055D01*
X26118Y33055D01*
X26123Y33029D01*
Y32640D01*
X25966D01*
Y32390D01*
X26266D01*
Y32290D01*
X25966D01*
Y32040D01*
X26123D01*
Y31295D01*
X26109Y31275D01*
X26098Y31220D01*
X26098Y31220D01*
Y30353D01*
X26241Y30211D01*
X26384Y30353D01*
Y31169D01*
X26397Y31190D01*
X26408Y31245D01*
X26408Y31245D01*
Y32040D01*
X26487D01*
Y30980D01*
X26487Y30980D01*
X26498Y30925D01*
X26529Y30879D01*
X27099Y30309D01*
X27099Y30309D01*
X27145Y30278D01*
X27200Y30267D01*
X27200Y30267D01*
X28540D01*
X28540Y30267D01*
X28549Y30269D01*
X28587Y30237D01*
Y29600D01*
X28587Y29600D01*
X28592Y29577D01*
X28559Y29522D01*
X28547Y29520D01*
X28498Y29487D01*
X28480Y29460D01*
X28427Y29470D01*
X28422Y29495D01*
X28391Y29541D01*
X28391Y29541D01*
X28281Y29651D01*
X28235Y29682D01*
X28180Y29693D01*
X28180Y29693D01*
X27381D01*
X27381Y29693D01*
X27327Y29682D01*
X27280Y29651D01*
X27280Y29651D01*
X26786Y29157D01*
X26748Y29189D01*
X26772Y29225D01*
X26783Y29280D01*
Y29529D01*
X26994Y29740D01*
X26640Y30094D01*
X26286Y29740D01*
X26290Y29734D01*
X26119Y29563D01*
X26101Y29565D01*
X26083Y29619D01*
X26244Y29780D01*
X26241Y29786D01*
X26382Y29928D01*
X26206Y30105D01*
X26029Y30281D01*
X25887Y30140D01*
X25891Y30134D01*
X25750Y29992D01*
X25926Y29815D01*
X25856Y29745D01*
X25679Y29921D01*
X25624Y29867D01*
X25563Y29928D01*
Y31890D01*
X25551Y31952D01*
X25515Y32005D01*
X24671Y32849D01*
X24691Y32896D01*
X24843D01*
Y33489D01*
X24465D01*
Y33121D01*
X24419Y33101D01*
X24325Y33195D01*
X24272Y33231D01*
X24210Y33243D01*
X24095D01*
Y33448D01*
X24155Y33508D01*
X24190Y33561D01*
X24202Y33623D01*
Y33675D01*
X24289D01*
Y33675D01*
X24320Y33670D01*
X24320Y33670D01*
X24337Y33670D01*
X24820D01*
Y34170D01*
X24320D01*
Y34170D01*
X24289Y34175D01*
X24289Y34175D01*
X24272Y34175D01*
X24045D01*
X24019Y34225D01*
X24029Y34240D01*
X24290D01*
Y34240D01*
X24321Y34235D01*
X24321Y34235D01*
X24338Y34235D01*
X24521D01*
Y34485D01*
Y34735D01*
X24321D01*
Y34735D01*
X24290Y34740D01*
X24290Y34740D01*
X24273Y34740D01*
X24090D01*
Y34490D01*
X23990D01*
Y34740D01*
X23790D01*
Y34633D01*
X23256D01*
X23235Y34647D01*
X23180Y34658D01*
X23180Y34658D01*
X22601D01*
Y34765D01*
X22401D01*
Y34515D01*
Y34265D01*
X22601D01*
Y34372D01*
X23129D01*
X23150Y34358D01*
X23205Y34347D01*
X23630D01*
X23649Y34301D01*
X23609Y34261D01*
X23578Y34215D01*
X23576Y34204D01*
X22695Y33265D01*
X22649Y33284D01*
Y33559D01*
X22271D01*
Y32966D01*
X22338D01*
X22357Y32919D01*
X21985Y32547D01*
X21954Y32501D01*
X21945Y32457D01*
X21646D01*
X21003Y33100D01*
Y34390D01*
X20991Y34452D01*
X20955Y34505D01*
X20595Y34865D01*
X20542Y34901D01*
X20480Y34913D01*
X20408D01*
X20380Y34955D01*
X20398Y34997D01*
X20414Y35120D01*
X20398Y35243D01*
X20351Y35357D01*
X20275Y35455D01*
X20177Y35531D01*
X20063Y35578D01*
X19940Y35594D01*
X19817Y35578D01*
X19703Y35531D01*
X19605Y35455D01*
X19529Y35357D01*
X19482Y35243D01*
X19466Y35120D01*
X19482Y34997D01*
X19529Y34883D01*
X19605Y34785D01*
X19703Y34709D01*
X19802Y34668D01*
X19821Y34640D01*
X19815Y34616D01*
X19801Y34590D01*
X19705D01*
X19470Y34355D01*
Y34344D01*
X19420Y34313D01*
X19410Y34317D01*
Y34355D01*
X19175Y34590D01*
X18705D01*
X18484Y34369D01*
X18434Y34389D01*
X18435Y34849D01*
X18485Y34870D01*
X18705Y34650D01*
X19175D01*
X19410Y34885D01*
Y35355D01*
X19175Y35590D01*
X18705D01*
X18486Y35371D01*
X18436Y35391D01*
X18440Y37900D01*
X31756D01*
X31766Y37850D01*
D02*
G37*
G36*
X36329Y37441D02*
X36200Y37312D01*
Y37060D01*
X36150D01*
Y37010D01*
X35898D01*
X35578Y36690D01*
X34868D01*
X34853Y36740D01*
X34875Y36755D01*
X35608Y37487D01*
X36310D01*
X36329Y37441D01*
D02*
G37*
G36*
X35921Y36564D02*
Y36250D01*
X36017D01*
Y36088D01*
X35685Y35755D01*
X35649Y35702D01*
X35637Y35640D01*
Y32240D01*
X35649Y32177D01*
X35685Y32124D01*
X35805Y32004D01*
X35829Y31988D01*
Y31396D01*
X34629D01*
Y31514D01*
X34651Y31529D01*
X34751Y31629D01*
X34770Y31626D01*
X34856Y31643D01*
X34929Y31691D01*
X34977Y31764D01*
X34994Y31850D01*
X34977Y31936D01*
X34929Y32009D01*
X34856Y32057D01*
X34770Y32074D01*
X34684Y32057D01*
X34611Y32009D01*
X34563Y31936D01*
X34558Y31911D01*
X34193D01*
Y32141D01*
X34629D01*
Y32268D01*
X35121D01*
X35121Y32268D01*
X35175Y32279D01*
X35222Y32310D01*
X35451Y32539D01*
X35451Y32539D01*
X35482Y32585D01*
X35493Y32640D01*
Y33811D01*
X35509Y33821D01*
X35557Y33894D01*
X35574Y33980D01*
X35557Y34066D01*
X35509Y34139D01*
X35436Y34187D01*
X35350Y34204D01*
X35264Y34187D01*
X35191Y34139D01*
X35143Y34066D01*
X35126Y33980D01*
X35143Y33894D01*
X35191Y33821D01*
X35207Y33811D01*
Y33018D01*
X35169Y32987D01*
X35130Y32994D01*
X35111Y32991D01*
X34773Y33329D01*
Y33950D01*
X34762Y34005D01*
X34731Y34051D01*
X34685Y34082D01*
X34639Y34091D01*
Y34220D01*
X34193D01*
Y34450D01*
X34310D01*
Y34720D01*
X34360D01*
Y34770D01*
X34619D01*
Y34990D01*
X34503D01*
Y36290D01*
X34504D01*
Y36547D01*
X34604D01*
Y36290D01*
X34772D01*
Y36404D01*
X35637D01*
X35637Y36404D01*
X35692Y36415D01*
X35738Y36446D01*
X35875Y36583D01*
X35921Y36564D01*
D02*
G37*
G36*
X41960Y37870D02*
Y27896D01*
X41957Y27848D01*
X41910Y27848D01*
X41363D01*
Y27215D01*
X41957Y27215D01*
X41960Y27166D01*
Y26715D01*
X41957Y26667D01*
X41363D01*
Y26284D01*
X41317Y26265D01*
X41233Y26349D01*
Y27002D01*
X41233Y27002D01*
X41222Y27057D01*
X41191Y27103D01*
X41191Y27103D01*
X40741Y27553D01*
X40695Y27584D01*
X40640Y27595D01*
X40640Y27595D01*
X40578D01*
X40555Y27639D01*
X40564Y27653D01*
X40579Y27731D01*
X40564Y27808D01*
X40556Y27821D01*
X40579Y27864D01*
X40579D01*
Y28615D01*
X39828D01*
Y28344D01*
X39778Y28318D01*
X39773Y28321D01*
Y28894D01*
X39776Y28943D01*
X39823Y28943D01*
X40843D01*
Y29943D01*
X39823D01*
X39776Y29943D01*
X39773Y29991D01*
Y33610D01*
X39773Y33610D01*
X39762Y33665D01*
X39731Y33711D01*
X39731Y33711D01*
X38033Y35409D01*
Y36250D01*
X38409D01*
Y36790D01*
X38363D01*
X38325Y36819D01*
Y37319D01*
X38363Y37347D01*
X38481D01*
X38698Y37130D01*
X38950D01*
Y37030D01*
X38700D01*
Y36830D01*
X38707D01*
X38731Y36790D01*
Y36250D01*
X39249D01*
Y36327D01*
X39274Y36342D01*
X39324Y36313D01*
Y36250D01*
X39842D01*
Y36790D01*
X39771D01*
X39745Y36829D01*
Y37329D01*
X39383D01*
Y37470D01*
X39371Y37532D01*
X39335Y37585D01*
X39155Y37765D01*
X39102Y37801D01*
X39040Y37813D01*
X35540D01*
X35478Y37801D01*
X35425Y37765D01*
X34692Y37033D01*
X33130D01*
X33068Y37021D01*
X33015Y36985D01*
X32625Y36595D01*
X32589Y36542D01*
X32577Y36480D01*
Y36310D01*
X32527Y36300D01*
X32511Y36337D01*
X32470Y36391D01*
X32416Y36432D01*
X32354Y36458D01*
X32287Y36467D01*
X32250D01*
X32229Y36517D01*
X33179Y37467D01*
X33962D01*
Y37183D01*
X34398D01*
Y37697D01*
X34290D01*
X34281Y37711D01*
X34235Y37742D01*
X34180Y37753D01*
X33120D01*
X33065Y37742D01*
X33019Y37711D01*
X33019Y37711D01*
X32593Y37285D01*
X32546Y37309D01*
Y37607D01*
X32537Y37675D01*
X32511Y37737D01*
X32470Y37791D01*
X32416Y37832D01*
X32374Y37850D01*
X32384Y37900D01*
X41922D01*
X41960Y37870D01*
D02*
G37*
G36*
X37278Y37120D02*
X37530D01*
Y37020D01*
X37280D01*
Y36820D01*
X37280D01*
X37298Y36790D01*
Y36250D01*
X37414D01*
Y32490D01*
X37364Y32486D01*
X37357Y32519D01*
X37327Y32565D01*
X37327Y32565D01*
X36805Y33087D01*
X36759Y33118D01*
X36737Y33122D01*
Y33657D01*
X35963D01*
Y35572D01*
X36295Y35905D01*
X36331Y35958D01*
X36343Y36020D01*
Y36250D01*
X36439D01*
Y36762D01*
X36441Y36775D01*
X36472Y36791D01*
X36514Y36767D01*
Y36250D01*
X37032D01*
Y36790D01*
X36987D01*
X36945Y36809D01*
Y37267D01*
X37131D01*
X37278Y37120D01*
D02*
G37*
G36*
X20677Y34322D02*
Y33032D01*
X20689Y32970D01*
X20725Y32917D01*
X21523Y32118D01*
Y31863D01*
X21560D01*
X21561Y31858D01*
X21597Y31805D01*
X21615Y31786D01*
X21600Y31750D01*
X21600D01*
Y31452D01*
X21554Y31432D01*
X21413Y31573D01*
Y31790D01*
X21413Y31790D01*
X21402Y31845D01*
X21371Y31891D01*
X20393Y32868D01*
X20410Y32885D01*
Y33070D01*
X19990D01*
Y32650D01*
X20175D01*
X20192Y32667D01*
X21127Y31731D01*
Y31514D01*
X21127Y31514D01*
X21138Y31460D01*
X21169Y31413D01*
X21597Y30985D01*
X21849D01*
Y30935D01*
X21899D01*
Y30685D01*
X22099D01*
X22119Y30675D01*
Y30675D01*
X22319D01*
Y30925D01*
Y31175D01*
X22119D01*
X22099Y31185D01*
Y31185D01*
X21829D01*
X21818Y31200D01*
X21843Y31250D01*
X22100D01*
X22120Y31240D01*
Y31240D01*
X22620D01*
Y31740D01*
X22620D01*
X22599Y31790D01*
X22611Y31808D01*
X22622Y31863D01*
X22649D01*
Y31997D01*
X23072D01*
X23095Y31975D01*
X23148Y31939D01*
X23210Y31927D01*
X23717D01*
Y31793D01*
X23761D01*
X23791Y31749D01*
X23841Y31699D01*
Y31225D01*
X24082D01*
X24093Y31210D01*
X24068Y31160D01*
X23840D01*
Y31053D01*
X23281D01*
X23275Y31057D01*
X23220Y31068D01*
X23220Y31068D01*
X22619D01*
Y31175D01*
X22419D01*
Y30925D01*
Y30675D01*
X22619D01*
Y30782D01*
X23174D01*
X23180Y30778D01*
X23235Y30767D01*
X23235Y30767D01*
X23840D01*
Y30660D01*
X24040D01*
Y30910D01*
X24140D01*
Y30658D01*
X24339Y30459D01*
X24339Y30459D01*
X24587Y30211D01*
Y29905D01*
X24537Y29885D01*
X24201Y30221D01*
X24155Y30252D01*
X24100Y30263D01*
X24100Y30263D01*
X23040D01*
X23040Y30263D01*
X22985Y30252D01*
X22939Y30221D01*
X22939Y30221D01*
X22739Y30021D01*
X22708Y29975D01*
X22697Y29920D01*
X22697Y29920D01*
Y29632D01*
X22381Y29315D01*
X22372Y29319D01*
X22339Y29344D01*
X22354Y29420D01*
X22337Y29506D01*
X22289Y29579D01*
X22216Y29627D01*
X22130Y29644D01*
X22044Y29627D01*
X21971Y29579D01*
X21961Y29563D01*
X20689D01*
X19561Y30691D01*
X19565Y30720D01*
X19617Y30738D01*
X19705Y30650D01*
X20175D01*
X20410Y30885D01*
Y31355D01*
X20175Y31590D01*
X19705D01*
X19599Y31484D01*
X19553Y31503D01*
Y31737D01*
X19599Y31756D01*
X19705Y31650D01*
X20175D01*
X20410Y31885D01*
Y32355D01*
X20175Y32590D01*
X19705D01*
X19599Y32484D01*
X19553Y32503D01*
Y32737D01*
X19599Y32756D01*
X19705Y32650D01*
X19890D01*
Y33120D01*
Y33590D01*
X19705D01*
X19599Y33484D01*
X19553Y33503D01*
Y33737D01*
X19599Y33756D01*
X19705Y33650D01*
X20175D01*
X20410Y33885D01*
Y34355D01*
X20224Y34541D01*
X20243Y34587D01*
X20412D01*
X20677Y34322D01*
D02*
G37*
G36*
X32275Y31365D02*
X32099Y31188D01*
X32240Y31046D01*
X32271Y31078D01*
X32317Y31058D01*
Y28401D01*
X32299Y28389D01*
X32267Y28379D01*
X32227Y28406D01*
X32179Y28416D01*
X32170Y28463D01*
X32137Y28512D01*
X32087Y28545D01*
X32040Y28555D01*
X32031Y28602D01*
X31998Y28652D01*
X31948Y28685D01*
X31901Y28694D01*
X31891Y28741D01*
X31858Y28791D01*
X31809Y28824D01*
X31805Y28825D01*
X31798Y28831D01*
X31772Y28882D01*
X31779Y28914D01*
X31779Y28914D01*
Y29591D01*
X31795Y29601D01*
X31843Y29674D01*
X31860Y29760D01*
X31845Y29839D01*
X31866Y29843D01*
X31939Y29891D01*
X31987Y29964D01*
X32004Y30050D01*
X31987Y30136D01*
X31939Y30209D01*
X31923Y30219D01*
Y30730D01*
X32194Y31001D01*
X31923Y31271D01*
X31969Y31317D01*
X32028Y31259D01*
X32205Y31435D01*
X32275Y31365D01*
D02*
G37*
G36*
X33357Y32822D02*
Y31741D01*
X33357Y31741D01*
X33368Y31686D01*
X33399Y31640D01*
X33499Y31540D01*
X33499Y31540D01*
X33518Y31527D01*
Y31371D01*
X33587D01*
X33634Y31370D01*
X33634Y31370D01*
Y31228D01*
X33634Y31227D01*
X33634Y31225D01*
X33637Y31106D01*
X33602Y31071D01*
X33535D01*
Y30871D01*
X33785D01*
Y30771D01*
X33535D01*
Y30571D01*
X33642D01*
Y29975D01*
X33642Y29975D01*
X33653Y29920D01*
X33675Y29888D01*
X33576Y29790D01*
X33718Y29649D01*
X33895Y29825D01*
X33965Y29755D01*
X33785Y29574D01*
X33769Y29526D01*
X33751Y29524D01*
X33530Y29744D01*
X33423Y29638D01*
X33293Y29768D01*
Y32807D01*
X33343Y32832D01*
X33357Y32822D01*
D02*
G37*
G36*
X23064Y29857D02*
X23073Y29814D01*
X23121Y29741D01*
X23137Y29731D01*
Y28650D01*
X23137Y28650D01*
X23148Y28595D01*
X23179Y28549D01*
X23259Y28469D01*
X23259Y28469D01*
X23269Y28463D01*
X23253Y28413D01*
X23150D01*
X23100Y28423D01*
X23100Y28423D01*
X22927D01*
Y28539D01*
X22707D01*
Y28280D01*
X22607D01*
Y28539D01*
X22387D01*
Y28456D01*
X22343Y28441D01*
X22337Y28440D01*
X22265Y28488D01*
X22179Y28505D01*
X22093Y28488D01*
X22070Y28472D01*
X22026Y28496D01*
Y28539D01*
X21485D01*
Y28539D01*
X21474Y28544D01*
X21470Y28569D01*
X21472Y28574D01*
X21511Y28615D01*
X22026D01*
Y28731D01*
X22387D01*
Y28614D01*
X22927D01*
Y29132D01*
X22666D01*
X22647Y29178D01*
X22941Y29472D01*
X22972Y29518D01*
X22983Y29573D01*
X22983Y29573D01*
Y29846D01*
X23015Y29873D01*
X23064Y29857D01*
D02*
G37*
G36*
X18705Y30650D02*
X19175D01*
X19221Y30696D01*
X19267Y30677D01*
Y30640D01*
X19267Y30640D01*
X19278Y30585D01*
X19309Y30539D01*
X19662Y30186D01*
X19643Y30140D01*
X18766D01*
Y29015D01*
X19950D01*
Y29832D01*
X19997Y29852D01*
X20529Y29319D01*
X20529Y29319D01*
X20575Y29288D01*
X20630Y29277D01*
X20630Y29277D01*
X21315D01*
X21328Y29253D01*
X21333Y29227D01*
X21019Y28914D01*
X20988Y28867D01*
X20977Y28813D01*
X20977Y28813D01*
Y27907D01*
X20965Y27898D01*
X20915Y27924D01*
Y28383D01*
Y28898D01*
X19849D01*
Y28269D01*
X19819Y28249D01*
X19819Y28249D01*
X19739Y28169D01*
X19708Y28123D01*
X19697Y28068D01*
X19697Y28068D01*
Y25950D01*
X19697Y25950D01*
X19708Y25895D01*
X19735Y25855D01*
X19723Y25809D01*
X19721Y25805D01*
X18766D01*
Y24680D01*
X19950D01*
Y25727D01*
X22290D01*
X22345Y25738D01*
X22391Y25769D01*
X22422Y25815D01*
X22433Y25870D01*
Y25890D01*
X22567D01*
Y23987D01*
X21392Y22812D01*
X21331Y22822D01*
X21299Y22869D01*
X21226Y22918D01*
X21140Y22935D01*
X21055Y22918D01*
X20989Y22873D01*
X20915D01*
Y22968D01*
X20915D01*
X20906Y22979D01*
X20914Y23020D01*
X20897Y23106D01*
X20849Y23179D01*
X20776Y23227D01*
X20690Y23244D01*
X20604Y23227D01*
X20531Y23179D01*
X20483Y23106D01*
X20466Y23020D01*
X20468Y23006D01*
X20437Y22968D01*
X19849D01*
Y22453D01*
Y22268D01*
X20382D01*
Y22168D01*
X19849D01*
Y21961D01*
Y21469D01*
Y20976D01*
Y20484D01*
Y19992D01*
X20655D01*
X20674Y19946D01*
X19997Y19268D01*
X19950Y19288D01*
Y19875D01*
X18903D01*
Y21631D01*
X18919Y21641D01*
X18967Y21714D01*
X18984Y21800D01*
X18967Y21886D01*
X18919Y21959D01*
X18846Y22007D01*
X18760Y22024D01*
X18674Y22007D01*
X18601Y21959D01*
X18553Y21886D01*
X18536Y21800D01*
X18553Y21714D01*
X18601Y21641D01*
X18617Y21631D01*
Y18750D01*
X18628Y18695D01*
X18659Y18649D01*
X18705Y18618D01*
X18760Y18607D01*
X18941D01*
X19367Y18181D01*
Y17991D01*
X18948D01*
Y17980D01*
X18943Y17965D01*
X18898Y17937D01*
X18860Y17944D01*
X18774Y17927D01*
X18701Y17879D01*
X18653Y17806D01*
X18636Y17720D01*
X18653Y17634D01*
X18701Y17561D01*
X18774Y17513D01*
X18800Y17508D01*
X18822Y17452D01*
X18808Y17432D01*
X18797Y17378D01*
X18797Y17377D01*
Y16669D01*
X18781Y16659D01*
X18733Y16586D01*
X18716Y16500D01*
X18733Y16414D01*
X18757Y16378D01*
X18727Y16333D01*
X18720Y16334D01*
X18634Y16317D01*
X18561Y16269D01*
X18513Y16196D01*
X18496Y16110D01*
X18513Y16024D01*
X18561Y15951D01*
X18634Y15903D01*
X18720Y15886D01*
X18806Y15903D01*
X18879Y15951D01*
X18891Y15969D01*
X18935Y15978D01*
X18981Y16009D01*
X19311Y16339D01*
X19311Y16339D01*
X19342Y16385D01*
X19353Y16440D01*
Y16649D01*
X19463D01*
Y16649D01*
X19507Y16635D01*
Y16320D01*
X19507Y16320D01*
X19518Y16265D01*
X19549Y16219D01*
X19616Y16152D01*
X19595Y16107D01*
X19575Y16109D01*
X19440Y16096D01*
X19309Y16056D01*
X19189Y15992D01*
X19084Y15906D01*
X18998Y15801D01*
X18934Y15681D01*
X18894Y15550D01*
X18881Y15415D01*
X18894Y15280D01*
X18934Y15149D01*
X18998Y15029D01*
X19084Y14924D01*
X19189Y14838D01*
X19309Y14774D01*
X19440Y14734D01*
X19575Y14721D01*
X19710Y14734D01*
X19841Y14774D01*
X19961Y14838D01*
X20066Y14924D01*
X20152Y15029D01*
X20216Y15149D01*
X20256Y15280D01*
X20269Y15415D01*
X20267Y15435D01*
X20312Y15456D01*
X21117Y14651D01*
Y14550D01*
X21117Y14550D01*
X21128Y14495D01*
X21159Y14449D01*
X21328Y14280D01*
X21315Y14237D01*
X21310Y14230D01*
X18442D01*
X18400Y14272D01*
X18428Y30865D01*
X18478Y30877D01*
X18705Y30650D01*
D02*
G37*
G36*
X37758Y35295D02*
X37789Y35249D01*
X39487Y33551D01*
Y28220D01*
X39487Y28220D01*
X39498Y28165D01*
X39529Y28119D01*
X39677Y27971D01*
Y27631D01*
X39631D01*
Y27502D01*
X39967D01*
Y27402D01*
X39631D01*
Y27274D01*
Y27083D01*
X38591D01*
X38591Y27083D01*
X38536Y27072D01*
X38490Y27041D01*
X38490Y27041D01*
X38455Y27007D01*
X38409Y27026D01*
Y27300D01*
X38293D01*
Y27396D01*
X38282Y27450D01*
X38251Y27497D01*
X38251Y27497D01*
X38169Y27578D01*
X38174Y27628D01*
X38209Y27651D01*
X38257Y27724D01*
X38274Y27810D01*
X38269Y27839D01*
X38275Y27848D01*
X38285Y27900D01*
X38402D01*
Y28440D01*
X37973D01*
Y33271D01*
X37989Y33281D01*
X38037Y33354D01*
X38054Y33440D01*
X38037Y33526D01*
X37989Y33599D01*
X37916Y33647D01*
X37830Y33664D01*
X37750Y33648D01*
X37734Y33652D01*
X37700Y33671D01*
Y35333D01*
X37750Y35338D01*
X37758Y35295D01*
D02*
G37*
G36*
X21875Y26980D02*
Y26013D01*
X20915D01*
Y26130D01*
X20382D01*
Y26230D01*
X20915D01*
Y26529D01*
X21300D01*
X21300Y26529D01*
X21355Y26540D01*
X21401Y26571D01*
X21829Y26999D01*
X21875Y26980D01*
D02*
G37*
G36*
X34577Y24768D02*
Y22370D01*
X34577Y22370D01*
X34588Y22315D01*
X34619Y22269D01*
X35189Y21699D01*
X35186Y21680D01*
X35195Y21633D01*
X35155Y21583D01*
X34670D01*
X34608Y21571D01*
X34555Y21535D01*
X34497Y21478D01*
X34451Y21497D01*
Y21745D01*
X34183D01*
Y24447D01*
X34040Y24589D01*
X33897Y24447D01*
Y23965D01*
X33847Y23939D01*
X33770Y23954D01*
X33684Y23937D01*
X33611Y23889D01*
X33563Y23816D01*
X33546Y23730D01*
X33563Y23644D01*
X33611Y23571D01*
X33684Y23523D01*
X33770Y23506D01*
X33847Y23521D01*
X33897Y23495D01*
Y21740D01*
X33701D01*
Y21490D01*
X33651D01*
Y21440D01*
X33401D01*
Y21383D01*
X32960D01*
X32898Y21371D01*
X32845Y21335D01*
X32154Y20644D01*
X32118Y20592D01*
X32106Y20529D01*
Y19321D01*
X32118Y19259D01*
X32154Y19206D01*
X32495Y18865D01*
X32548Y18829D01*
X32611Y18817D01*
X32809D01*
X32872Y18829D01*
X32925Y18865D01*
X32991Y18931D01*
X33037Y18912D01*
Y18840D01*
X32075Y17878D01*
X32029Y17902D01*
X32033Y17920D01*
Y19836D01*
X32022Y19890D01*
X31991Y19937D01*
X31991Y19937D01*
X31893Y20035D01*
X31641D01*
Y20085D01*
X31591D01*
Y20335D01*
X31391D01*
Y20228D01*
X31215D01*
X31173Y20256D01*
X31119Y20266D01*
X31119Y20266D01*
X30643D01*
Y21280D01*
X30632Y21335D01*
X30601Y21381D01*
X30601Y21381D01*
X30481Y21501D01*
X30500Y21547D01*
X31146D01*
X31146Y21547D01*
X31201Y21558D01*
X31247Y21589D01*
X31832Y22174D01*
X31908Y22098D01*
X32049Y22240D01*
X31873Y22417D01*
X31943Y22487D01*
X32121Y22309D01*
X32630D01*
X33399Y21540D01*
X33601D01*
Y21742D01*
X32790Y22553D01*
X32744Y22584D01*
X32689Y22595D01*
X32689Y22595D01*
X32165D01*
X32163Y22597D01*
X32190Y22647D01*
X33308D01*
X33374Y22603D01*
X33460Y22586D01*
X33546Y22603D01*
X33619Y22651D01*
X33667Y22724D01*
X33684Y22810D01*
X33667Y22896D01*
X33619Y22969D01*
X33546Y23017D01*
X33460Y23034D01*
X33374Y23017D01*
X33308Y22973D01*
X32417D01*
X32410Y23023D01*
X32714Y23327D01*
X32714D01*
X32739Y23352D01*
X33048Y23661D01*
X33048Y23661D01*
X33073Y23686D01*
X33083Y23696D01*
X33382Y23995D01*
X33069Y24307D01*
X33066Y24325D01*
X33035Y24371D01*
X32989Y24402D01*
X32971Y24405D01*
X32906Y24471D01*
X32925Y24517D01*
X33827D01*
X34005Y24695D01*
X34040Y24660D01*
X34075Y24695D01*
X34252Y24519D01*
X34372Y24638D01*
X34410Y24666D01*
X34410D01*
X34410Y24666D01*
X34531Y24788D01*
X34577Y24768D01*
D02*
G37*
G36*
X24810Y20435D02*
X25077D01*
Y19726D01*
X25065Y19714D01*
X25029Y19661D01*
X25017Y19599D01*
Y18821D01*
X25029Y18759D01*
X25065Y18706D01*
X25077Y18694D01*
Y17263D01*
X25031Y17244D01*
X24965Y17310D01*
X24780D01*
Y16840D01*
Y16370D01*
X24965D01*
X25031Y16436D01*
X25077Y16417D01*
Y16330D01*
X25089Y16268D01*
X25112Y16234D01*
X25073Y16202D01*
X24965Y16310D01*
X24495D01*
X24260Y16075D01*
Y15605D01*
X24495Y15370D01*
X24965D01*
X25200Y15605D01*
Y16026D01*
X25250Y16057D01*
X25260Y16052D01*
Y15605D01*
X25495Y15370D01*
X25965D01*
X26200Y15605D01*
Y15630D01*
X26207Y15635D01*
X26250Y15648D01*
X27439Y14459D01*
X27439Y14459D01*
X27485Y14428D01*
X27540Y14417D01*
X36800D01*
X36800Y14417D01*
X36855Y14428D01*
X36901Y14459D01*
X37269Y14827D01*
X37269Y14827D01*
X37300Y14874D01*
X37311Y14928D01*
Y15679D01*
X37426D01*
Y16162D01*
X37168D01*
Y16262D01*
X37426D01*
Y16745D01*
X37311D01*
Y16880D01*
X37311Y16880D01*
X37300Y16935D01*
X37269Y16981D01*
X37269Y16981D01*
X37183Y17067D01*
Y17201D01*
X37590D01*
Y17297D01*
X37710D01*
X37760Y17287D01*
X37877D01*
X37903Y17237D01*
X37883Y17206D01*
X37866Y17120D01*
X37883Y17034D01*
X37931Y16961D01*
X38004Y16913D01*
X38090Y16896D01*
X38176Y16913D01*
X38249Y16961D01*
X38297Y17034D01*
X38314Y17117D01*
X38341Y17158D01*
X38347Y17191D01*
X38460D01*
Y17287D01*
X39830D01*
X39836Y17288D01*
X39841Y17287D01*
X39867Y17294D01*
X39892Y17299D01*
X39897Y17302D01*
X39903Y17304D01*
X39923Y17320D01*
X39945Y17335D01*
X39949Y17339D01*
X39953Y17343D01*
X40374Y17827D01*
X41330D01*
X41392Y17839D01*
X41417Y17856D01*
X41455Y17866D01*
X41481Y17843D01*
X41510Y17800D01*
X41579Y17754D01*
X41660Y17738D01*
X41741Y17754D01*
X41810Y17800D01*
X41856Y17869D01*
X41872Y17950D01*
X41856Y18031D01*
X41810Y18100D01*
X41741Y18146D01*
X41660Y18162D01*
X41579Y18146D01*
X41543Y18122D01*
X41493Y18149D01*
Y18248D01*
X41960D01*
Y16991D01*
X41477D01*
Y16437D01*
X41960D01*
Y14230D01*
X23390D01*
X23385Y14237D01*
X23372Y14280D01*
X23478Y14387D01*
X23495Y14370D01*
X23965D01*
X24200Y14605D01*
Y15075D01*
X23965Y15310D01*
X23495D01*
X23260Y15075D01*
Y14605D01*
X23277Y14588D01*
X23219Y14531D01*
X23200Y14534D01*
X23182Y14587D01*
X23200Y14605D01*
Y15075D01*
X22965Y15310D01*
X22495D01*
X22260Y15075D01*
Y14605D01*
X22306Y14559D01*
X22287Y14513D01*
X22173D01*
X22154Y14559D01*
X22200Y14605D01*
Y15075D01*
X22183Y15092D01*
X22301Y15209D01*
X22301Y15209D01*
X22332Y15255D01*
X22343Y15310D01*
Y15457D01*
X22389Y15476D01*
X22495Y15370D01*
X22965D01*
X23200Y15605D01*
Y16075D01*
X22965Y16310D01*
X22495D01*
X22389Y16204D01*
X22343Y16223D01*
Y16457D01*
X22389Y16476D01*
X22495Y16370D01*
X22680D01*
Y16840D01*
Y17310D01*
X22495D01*
X22389Y17204D01*
X22343Y17223D01*
Y17801D01*
X22651Y18109D01*
X22651Y18109D01*
X22682Y18155D01*
X22693Y18210D01*
X22693Y18210D01*
Y18860D01*
X22682Y18915D01*
X22651Y18961D01*
X22605Y18992D01*
X22550Y19003D01*
X22547D01*
Y19127D01*
X23147D01*
X23453Y18821D01*
Y18677D01*
X23378D01*
Y18163D01*
X23814D01*
Y18677D01*
X23739D01*
Y18880D01*
X23728Y18935D01*
X23697Y18981D01*
X23697Y18981D01*
X23680Y18998D01*
X23693Y19053D01*
X23728Y19067D01*
X23752Y19055D01*
Y19055D01*
X24188D01*
X24201Y19011D01*
Y18677D01*
X24126D01*
Y18470D01*
X24344D01*
X24562D01*
Y18677D01*
X24487D01*
Y19930D01*
X24487Y19930D01*
X24476Y19985D01*
X24445Y20031D01*
X24445Y20031D01*
X24250Y20226D01*
X24269Y20270D01*
X24269D01*
Y20490D01*
X24010D01*
Y20590D01*
X24269D01*
Y20810D01*
X24007D01*
X23988Y20856D01*
X24254Y21122D01*
X24810D01*
Y20435D01*
D02*
G37*
G36*
X27665Y19134D02*
X27678Y19126D01*
X27688Y19075D01*
X27719Y19029D01*
X28059Y18689D01*
X28059Y18689D01*
X28089Y18669D01*
X28450Y18308D01*
Y17883D01*
X27990D01*
Y18332D01*
X27450D01*
Y18216D01*
X27329D01*
X27319Y18232D01*
X27246Y18280D01*
X27160Y18297D01*
X27074Y18280D01*
X27001Y18232D01*
X26953Y18159D01*
X26936Y18073D01*
X26953Y17987D01*
X26989Y17933D01*
X26966Y17883D01*
X26630D01*
X26630Y17883D01*
X26575Y17872D01*
X26529Y17841D01*
X26529Y17841D01*
X25982Y17293D01*
X25965Y17310D01*
X25780D01*
Y16890D01*
X26200D01*
Y17075D01*
X26183Y17092D01*
X26689Y17597D01*
X27450D01*
Y17221D01*
X27990D01*
Y17337D01*
X28161D01*
X28677Y16821D01*
X28692Y16775D01*
X28692D01*
X28692Y16775D01*
Y16063D01*
X27592D01*
X27526Y16107D01*
X27440Y16124D01*
X27354Y16107D01*
X27281Y16059D01*
X27233Y15986D01*
X27216Y15900D01*
X27233Y15814D01*
X27281Y15741D01*
X27354Y15693D01*
X27440Y15676D01*
X27450Y15667D01*
Y14917D01*
X27404Y14898D01*
X26483Y15819D01*
Y16230D01*
X26472Y16285D01*
X26441Y16331D01*
X26441Y16331D01*
X26183Y16588D01*
X26200Y16605D01*
Y16790D01*
X25730D01*
Y16840D01*
X25680D01*
Y17310D01*
X25495D01*
X25449Y17264D01*
X25403Y17283D01*
Y17677D01*
X25431Y17686D01*
X25453Y17690D01*
X25524Y17643D01*
X25610Y17626D01*
X25696Y17643D01*
X25769Y17691D01*
X25817Y17764D01*
X25834Y17850D01*
X25817Y17936D01*
X25769Y18009D01*
X25753Y18019D01*
Y18328D01*
X25880D01*
Y18444D01*
X26911D01*
X26921Y18428D01*
X26994Y18380D01*
X27080Y18363D01*
X27166Y18380D01*
X27239Y18428D01*
X27287Y18501D01*
X27304Y18587D01*
X27287Y18673D01*
X27245Y18735D01*
X27252Y18776D01*
X27260Y18792D01*
X27301Y18819D01*
X27627Y19145D01*
X27665Y19134D01*
D02*
G37*
G36*
X39847Y20080D02*
X39859Y20018D01*
X39895Y19965D01*
X41167Y18692D01*
Y18533D01*
X41100D01*
Y18275D01*
X41000D01*
Y18533D01*
X40994D01*
X39623Y19904D01*
Y20974D01*
X39847D01*
Y20080D01*
D02*
G37*
G36*
X29099Y18999D02*
X29145Y18968D01*
X29200Y18957D01*
X29200Y18957D01*
X29436D01*
X29455Y18929D01*
X29502Y18898D01*
X29556Y18887D01*
X29571Y18875D01*
Y18629D01*
X29548Y18595D01*
X29537Y18540D01*
X29537Y18540D01*
Y18260D01*
X29430D01*
Y17962D01*
X29384Y17942D01*
X29143Y18183D01*
Y18710D01*
X29132Y18765D01*
X29101Y18811D01*
X29101Y18811D01*
X28492Y19420D01*
X28290D01*
Y19218D01*
X28857Y18651D01*
Y18374D01*
X28807Y18355D01*
X28271Y18891D01*
X28241Y18911D01*
X27976Y19176D01*
X28003Y19220D01*
X28190D01*
Y19470D01*
X28240D01*
Y19520D01*
X28490D01*
Y19543D01*
X28536Y19562D01*
X29099Y18999D01*
D02*
G37*
G36*
X22304Y18166D02*
X22099Y17961D01*
X22068Y17915D01*
X22057Y17860D01*
X22057Y17860D01*
Y17283D01*
X22011Y17264D01*
X21965Y17310D01*
X21780D01*
Y16840D01*
Y16370D01*
X21965D01*
X22011Y16416D01*
X22057Y16397D01*
Y16283D01*
X22011Y16264D01*
X21965Y16310D01*
X21495D01*
X21260Y16075D01*
Y15605D01*
X21495Y15370D01*
X21965D01*
X21983Y15388D01*
X22036Y15370D01*
X22039Y15351D01*
X21982Y15293D01*
X21965Y15310D01*
X21495D01*
X21260Y15075D01*
Y14977D01*
X21214Y14958D01*
X19793Y16379D01*
Y16649D01*
X20172D01*
Y16705D01*
X20338D01*
X20338Y16705D01*
X20392Y16716D01*
X20439Y16747D01*
X21871Y18179D01*
X21871Y18179D01*
X21875Y18185D01*
X21913Y18212D01*
X22285D01*
X22304Y18166D01*
D02*
G37*
G36*
X30239Y17195D02*
X30439D01*
Y17302D01*
X30981D01*
X31268Y17016D01*
Y16775D01*
X30077D01*
Y16976D01*
X30077Y16976D01*
X30066Y17031D01*
X30035Y17077D01*
X30035Y17077D01*
X29967Y17145D01*
X29988Y17195D01*
X30139D01*
Y17445D01*
X30239D01*
Y17195D01*
D02*
G37*
%LPC*%
G36*
X19600Y37344D02*
X19465Y37331D01*
X19334Y37291D01*
X19214Y37227D01*
X19109Y37141D01*
X19023Y37036D01*
X18959Y36916D01*
X18919Y36785D01*
X18906Y36650D01*
X18919Y36515D01*
X18959Y36384D01*
X19023Y36264D01*
X19109Y36159D01*
X19214Y36073D01*
X19334Y36009D01*
X19465Y35969D01*
X19600Y35956D01*
X19735Y35969D01*
X19866Y36009D01*
X19986Y36073D01*
X20091Y36159D01*
X20177Y36264D01*
X20241Y36384D01*
X20281Y36515D01*
X20294Y36650D01*
X20281Y36785D01*
X20241Y36916D01*
X20177Y37036D01*
X20091Y37141D01*
X19986Y37227D01*
X19866Y37291D01*
X19735Y37331D01*
X19600Y37344D01*
D02*
G37*
G36*
X24821Y34735D02*
X24621D01*
Y34485D01*
Y34235D01*
X24821D01*
Y34342D01*
X25496D01*
X25960Y33878D01*
Y33830D01*
X26210D01*
Y34080D01*
X26162D01*
X25656Y34586D01*
X25610Y34617D01*
X25555Y34628D01*
X25555Y34628D01*
X24821D01*
Y34735D01*
D02*
G37*
G36*
X26453Y30281D02*
X26312Y30140D01*
X26453Y29999D01*
X26594Y30140D01*
X26453Y30281D01*
D02*
G37*
G36*
X36100Y37310D02*
X35900D01*
Y37110D01*
X36100D01*
Y37310D01*
D02*
G37*
G36*
X34619Y34670D02*
X34410D01*
Y34450D01*
X34619D01*
Y34670D01*
D02*
G37*
G36*
X40820Y37354D02*
X40685Y37341D01*
X40554Y37301D01*
X40434Y37237D01*
X40329Y37151D01*
X40243Y37046D01*
X40179Y36926D01*
X40139Y36795D01*
X40126Y36660D01*
X40139Y36525D01*
X40179Y36394D01*
X40243Y36274D01*
X40329Y36169D01*
X40420Y36095D01*
X40402Y36045D01*
X39776D01*
Y35045D01*
X40843D01*
Y35968D01*
X40955Y35979D01*
X41086Y36019D01*
X41206Y36083D01*
X41311Y36169D01*
X41397Y36274D01*
X41461Y36394D01*
X41501Y36525D01*
X41514Y36660D01*
X41501Y36795D01*
X41461Y36926D01*
X41397Y37046D01*
X41311Y37151D01*
X41206Y37237D01*
X41086Y37301D01*
X40955Y37341D01*
X40820Y37354D01*
D02*
G37*
G36*
X40467Y34004D02*
X40397Y33994D01*
X40332Y33967D01*
X40276Y33925D01*
X40233Y33869D01*
X40207Y33804D01*
X40197Y33734D01*
X40207Y33664D01*
X40233Y33599D01*
X40276Y33543D01*
X40332Y33500D01*
X40397Y33473D01*
X40467Y33464D01*
X40537Y33473D01*
X40602Y33500D01*
X40658Y33543D01*
X40701Y33599D01*
X40727Y33664D01*
X40737Y33734D01*
X40727Y33804D01*
X40701Y33869D01*
X40658Y33925D01*
X40602Y33967D01*
X40537Y33994D01*
X40467Y34004D01*
D02*
G37*
G36*
Y30854D02*
X40397Y30845D01*
X40332Y30818D01*
X40276Y30775D01*
X40233Y30719D01*
X40207Y30654D01*
X40197Y30584D01*
X40207Y30515D01*
X40233Y30450D01*
X40276Y30394D01*
X40332Y30351D01*
X40397Y30324D01*
X40467Y30315D01*
X40537Y30324D01*
X40602Y30351D01*
X40658Y30394D01*
X40701Y30450D01*
X40727Y30515D01*
X40737Y30584D01*
X40727Y30654D01*
X40701Y30719D01*
X40658Y30775D01*
X40602Y30818D01*
X40537Y30845D01*
X40467Y30854D01*
D02*
G37*
G36*
X41606Y28881D02*
X40816D01*
Y28150D01*
X41606D01*
Y28881D01*
D02*
G37*
G36*
X36906Y35645D02*
X36154D01*
Y34815D01*
X36906D01*
Y35645D01*
D02*
G37*
G36*
X20175Y33590D02*
X19990D01*
Y33170D01*
X20410D01*
Y33355D01*
X20175Y33590D01*
D02*
G37*
G36*
X21799Y30885D02*
X21599D01*
Y30685D01*
X21799D01*
Y30885D01*
D02*
G37*
G36*
X19950Y24210D02*
X18766D01*
Y23085D01*
X19950D01*
Y24210D01*
D02*
G37*
G36*
X31891Y20335D02*
X31691D01*
Y20135D01*
X31891D01*
Y20335D01*
D02*
G37*
G36*
X41660Y17493D02*
X41579Y17477D01*
X41510Y17431D01*
X41464Y17362D01*
X41448Y17281D01*
X41464Y17199D01*
X41510Y17131D01*
X41579Y17085D01*
X41660Y17068D01*
X41741Y17085D01*
X41810Y17131D01*
X41856Y17199D01*
X41872Y17281D01*
X41856Y17362D01*
X41810Y17431D01*
X41741Y17477D01*
X41660Y17493D01*
D02*
G37*
G36*
X23965Y17310D02*
X23780D01*
Y16890D01*
X24200D01*
Y17075D01*
X23965Y17310D01*
D02*
G37*
G36*
X22965D02*
X22780D01*
Y16890D01*
X23200D01*
Y17075D01*
X22965Y17310D01*
D02*
G37*
G36*
X23680D02*
X23495D01*
X23260Y17075D01*
Y16890D01*
X23680D01*
Y17310D01*
D02*
G37*
G36*
X24562Y18370D02*
X24344D01*
X24126D01*
Y18163D01*
X24201D01*
Y17226D01*
X24201Y17226D01*
X24212Y17171D01*
X24243Y17125D01*
X24277Y17092D01*
X24260Y17075D01*
Y16890D01*
X24680D01*
Y17310D01*
X24495D01*
X24487Y17313D01*
Y18163D01*
X24562D01*
Y18370D01*
D02*
G37*
G36*
X40540Y17691D02*
X40454Y17673D01*
X40381Y17625D01*
X40333Y17552D01*
X40316Y17466D01*
X40333Y17380D01*
X40381Y17308D01*
X40454Y17259D01*
X40540Y17242D01*
X40559Y17246D01*
X40792Y17012D01*
Y16699D01*
X41307D01*
Y17214D01*
X40994D01*
X40761Y17448D01*
X40764Y17466D01*
X40747Y17552D01*
X40699Y17625D01*
X40626Y17673D01*
X40540Y17691D01*
D02*
G37*
G36*
X24680Y16790D02*
X24260D01*
Y16605D01*
X24495Y16370D01*
X24680D01*
Y16790D01*
D02*
G37*
G36*
X24200D02*
X23780D01*
Y16370D01*
X23965D01*
X24200Y16605D01*
Y16790D01*
D02*
G37*
G36*
X23680D02*
X23260D01*
Y16605D01*
X23495Y16370D01*
X23680D01*
Y16790D01*
D02*
G37*
G36*
X23200D02*
X22780D01*
Y16370D01*
X22965D01*
X23200Y16605D01*
Y16790D01*
D02*
G37*
G36*
X23965Y16310D02*
X23495D01*
X23260Y16075D01*
Y15605D01*
X23495Y15370D01*
X23965D01*
X24200Y15605D01*
Y16075D01*
X23965Y16310D01*
D02*
G37*
G36*
X40648Y16294D02*
X40513Y16281D01*
X40383Y16241D01*
X40263Y16177D01*
X40158Y16091D01*
X40071Y15986D01*
X40007Y15866D01*
X39968Y15735D01*
X39954Y15600D01*
X39968Y15465D01*
X40007Y15334D01*
X40071Y15214D01*
X40158Y15109D01*
X40263Y15023D01*
X40383Y14959D01*
X40513Y14919D01*
X40648Y14906D01*
X40784Y14919D01*
X40914Y14959D01*
X41034Y15023D01*
X41139Y15109D01*
X41225Y15214D01*
X41289Y15334D01*
X41329Y15465D01*
X41342Y15600D01*
X41329Y15735D01*
X41289Y15866D01*
X41225Y15986D01*
X41139Y16091D01*
X41034Y16177D01*
X40914Y16241D01*
X40784Y16281D01*
X40648Y16294D01*
D02*
G37*
G36*
X38668Y15780D02*
X37543D01*
Y14596D01*
X38668D01*
Y15780D01*
D02*
G37*
G36*
X25965Y15310D02*
X25495D01*
X25260Y15075D01*
Y14605D01*
X25495Y14370D01*
X25965D01*
X26200Y14605D01*
Y15075D01*
X25965Y15310D01*
D02*
G37*
G36*
X24965D02*
X24495D01*
X24260Y15075D01*
Y14605D01*
X24495Y14370D01*
X24965D01*
X25200Y14605D01*
Y15075D01*
X24965Y15310D01*
D02*
G37*
G36*
X21680Y17310D02*
X21495D01*
X21260Y17075D01*
Y16890D01*
X21680D01*
Y17310D01*
D02*
G37*
G36*
Y16790D02*
X21260D01*
Y16605D01*
X21495Y16370D01*
X21680D01*
Y16790D01*
D02*
G37*
%LPD*%
D15*
X34720Y22370D02*
Y24976D01*
X34722Y24979D01*
X34720Y22370D02*
X35410Y21680D01*
X34451Y25399D02*
X34700Y25150D01*
Y25084D02*
X34722Y25061D01*
X34700Y25084D02*
Y25150D01*
X34722Y24979D02*
Y25061D01*
X26530Y29010D02*
Y29170D01*
X25850Y28019D02*
X27381Y29550D01*
X25990Y27961D02*
X27439Y29410D01*
X26890Y28530D02*
Y28575D01*
X25990Y26810D02*
Y27961D01*
X27439Y29410D02*
X28000D01*
X26530Y29170D02*
X26640Y29280D01*
Y29740D01*
X27381Y29550D02*
X28180D01*
X25850Y26170D02*
Y28019D01*
X27319Y29004D02*
X27589D01*
X26890Y28575D02*
X27319Y29004D01*
X27589D02*
X28090Y28502D01*
X33180Y18780D02*
Y19210D01*
X33440Y19470D01*
X31845Y17445D02*
X33180Y18780D01*
X33440Y19470D02*
X33950D01*
X32710Y19220D02*
Y19580D01*
X32920Y19790D01*
X29871Y19110D02*
Y20124D01*
X29330D02*
X29871D01*
X30344Y18440D02*
Y19110D01*
X32920Y19790D02*
X34640D01*
X34040Y21656D02*
Y24660D01*
X28720Y22045D02*
X28845Y22170D01*
X28720Y21870D02*
Y22045D01*
X29141Y22170D02*
X29401Y21910D01*
X28845Y22170D02*
X29141D01*
X29000Y21830D02*
Y21950D01*
Y21830D02*
X29130Y21700D01*
X29020Y34260D02*
X29035Y34275D01*
Y34500D01*
X29185Y34650D01*
X28936Y34899D02*
Y35818D01*
Y34899D02*
X29185Y34650D01*
X31510D01*
X29730Y33270D02*
X30100Y32900D01*
X29730Y33270D02*
Y34300D01*
X31510Y34650D02*
X32517Y33643D01*
X33090Y20200D02*
X33576D01*
X30840Y19336D02*
X31456D01*
X30570D02*
X30840D01*
X29320Y20120D02*
Y20124D01*
X31281Y28703D02*
Y28781D01*
X34380Y33950D02*
X34630D01*
X31136Y30164D02*
Y31586D01*
X39820Y27452D02*
Y28030D01*
X33777Y31228D02*
Y31370D01*
X32460Y28000D02*
Y31400D01*
X33950Y19470D02*
X34520D01*
X30500Y20124D02*
Y21280D01*
X30226Y21450D02*
X30330D01*
X30500Y20124D02*
X30570D01*
X30186D02*
X30500D01*
X30186D02*
Y20350D01*
Y19110D02*
Y20124D01*
X31040Y17445D02*
X31415D01*
X31845D01*
X24440Y30560D02*
X24730Y30270D01*
X23710Y34138D02*
X24040Y34490D01*
X22670Y33030D02*
X23710Y34138D01*
Y34160D01*
Y32890D02*
Y34138D01*
X29458Y22452D02*
X29970D01*
X29281D02*
X29458D01*
X29000Y17840D02*
Y18124D01*
X22657Y28029D02*
Y28280D01*
Y27243D02*
Y28029D01*
X28958Y21242D02*
X29519Y20681D01*
X29714Y20486D01*
X38190Y18840D02*
X38580Y19230D01*
X37850Y18500D02*
X38190Y18840D01*
X29300Y20340D02*
X29556D01*
X28940D02*
X29300D01*
X27961Y25997D02*
Y26074D01*
X20800Y37050D02*
Y37250D01*
X33120Y37610D02*
X34180D01*
X28840Y17270D02*
Y17467D01*
X35430Y15670D02*
Y17457D01*
X22390Y36883D02*
X22642D01*
X23417Y20670D02*
X23600D01*
X34370Y31630D02*
X34550D01*
X37562Y27564D02*
X37880Y27246D01*
X37550Y27576D02*
X37562Y27564D01*
X32044Y24270D02*
X32934D01*
X19210Y16440D02*
Y16848D01*
X21910Y19510D02*
X23970D01*
X23590Y19270D02*
X23970D01*
X19970Y17792D02*
Y19040D01*
X28657Y28982D02*
Y29059D01*
X36070Y28159D02*
Y29954D01*
X29200Y19100D02*
X29556D01*
X30090Y20690D02*
Y21250D01*
Y20620D02*
Y20690D01*
X30075Y20605D02*
X30090Y20690D01*
X30029Y20350D02*
X30075Y20605D01*
X30090Y20620D01*
X30029Y20559D02*
X30075Y20605D01*
X30226Y21996D02*
Y22180D01*
X29970Y21740D02*
X30226Y21996D01*
X29714Y22080D02*
X29970Y21740D01*
Y21550D02*
Y21740D01*
X31456Y19336D02*
X31640Y19520D01*
X31431Y28641D02*
Y28709D01*
X31636Y28914D01*
Y29760D01*
X23280Y28650D02*
Y29900D01*
Y28650D02*
X23360Y28570D01*
X24370D01*
X24460Y28480D01*
Y28280D02*
Y28480D01*
X34380Y33950D02*
Y33950D01*
X34630Y33270D02*
Y33950D01*
Y33270D02*
X35130Y32770D01*
X30140Y27650D02*
Y27671D01*
X30010Y27520D02*
X30140Y27650D01*
X30010Y26200D02*
Y27520D01*
X29900Y26090D02*
X30010Y26200D01*
X29900Y25301D02*
Y26090D01*
Y25301D02*
X30456Y24744D01*
X27860Y28944D02*
Y29190D01*
Y28944D02*
X28162Y28641D01*
X28229D01*
X30990Y30720D02*
Y32340D01*
X30702Y30432D02*
X30990Y30720D01*
X29162Y30432D02*
X30702D01*
X28870Y30140D02*
X29162Y30432D01*
X28870Y29739D02*
Y30140D01*
Y29739D02*
X29065Y29544D01*
Y29477D02*
Y29544D01*
X30203Y31843D02*
Y32340D01*
X28730Y30370D02*
X30203Y31843D01*
X28730Y29600D02*
Y30370D01*
Y29600D02*
X28925Y29405D01*
Y29337D02*
Y29405D01*
X34370Y32411D02*
X35121D01*
X35350Y32640D01*
Y33980D01*
X30010Y29070D02*
X30160Y29220D01*
X30339D01*
X30596Y29477D01*
X34370Y32800D02*
Y33181D01*
X26241Y30130D02*
Y30140D01*
X25891Y29780D02*
X26241Y30130D01*
X22086Y32160D02*
Y32446D01*
X22670Y33030D01*
X39820Y27452D02*
X39967D01*
X39630Y28220D02*
X39820Y28030D01*
X39630Y28220D02*
Y33610D01*
X37890Y35350D02*
X39630Y33610D01*
X37890Y35350D02*
Y36710D01*
X37530Y37070D02*
X37890Y36710D01*
X34360Y36547D02*
X34554D01*
X34360Y34720D02*
Y36547D01*
X34554D02*
X35637D01*
X36150Y37060D01*
X33785Y29975D02*
Y30821D01*
Y29975D02*
X34020Y29740D01*
X33777Y31228D02*
X33785Y30821D01*
X24090Y30910D02*
X24440Y30560D01*
X24010Y20264D02*
Y20540D01*
Y20264D02*
X24344Y19930D01*
Y18420D02*
Y19930D01*
Y17226D02*
Y18420D01*
Y17226D02*
X24730Y16840D01*
X39480Y21724D02*
X40018D01*
X39480Y19845D02*
Y21724D01*
Y19845D02*
X41050Y18275D01*
X28900Y17740D02*
X29000Y17840D01*
X26630Y17740D02*
X28900D01*
X25730Y16840D02*
X26630Y17740D01*
X29136Y24744D02*
X29204D01*
X27510Y23118D02*
X29136Y24744D01*
X27510Y22631D02*
Y23118D01*
X29970Y22180D02*
Y22452D01*
X29102Y22631D02*
X29281Y22452D01*
X29970D02*
X31908D01*
X27510Y22631D02*
X29102D01*
X29458Y22180D02*
Y22452D01*
X28240Y19470D02*
X29000Y18710D01*
Y18124D02*
Y18710D01*
Y18124D02*
X29679Y17445D01*
X35920Y18050D02*
X36370D01*
X26956Y20754D02*
X27093Y20617D01*
X26956Y20754D02*
Y21565D01*
X26700Y21821D02*
X26956Y21565D01*
X26700Y21821D02*
Y23632D01*
X28508Y25440D01*
X37080Y18053D02*
X37320D01*
X35267Y19866D02*
X37080Y18053D01*
X29519Y20681D02*
X29528Y20690D01*
X28925Y24970D02*
Y25023D01*
X27120Y23265D02*
X28925Y24970D01*
X27120Y22400D02*
Y23265D01*
Y22400D02*
X27279Y22241D01*
X27959D01*
X28260Y21940D01*
Y21470D02*
Y21940D01*
Y21470D02*
X28488Y21242D01*
X28958D01*
X29714Y20350D02*
Y20486D01*
X38190Y18043D02*
Y18840D01*
X38580Y19230D02*
Y20530D01*
X38030Y20920D02*
X38240Y20710D01*
X28620Y21020D02*
X29300Y20340D01*
X28465Y21470D02*
X28620D01*
X28412Y22219D02*
X28465Y21470D01*
X28250Y22381D02*
X28412Y22219D01*
X27359Y22381D02*
X28250D01*
X27260Y22480D02*
X27359Y22381D01*
X27260Y22480D02*
Y23079D01*
X29065Y24883D01*
X38914Y22216D02*
X40018D01*
X38910Y22220D02*
X38914Y22216D01*
X27266Y25590D02*
X27812Y26136D01*
X20800Y37050D02*
X20803D01*
X20800Y37250D02*
X20932Y37382D01*
X25628D01*
X26110Y36900D01*
Y34830D02*
Y36900D01*
Y34830D02*
X26560Y34380D01*
Y32780D02*
Y34380D01*
Y32780D02*
X26630Y32710D01*
Y30980D02*
Y32710D01*
Y30980D02*
X27200Y30410D01*
X28540D01*
X29810Y31680D01*
Y32605D01*
X29885Y32680D01*
X32270D01*
X32530Y32420D01*
Y32080D02*
Y32420D01*
X31416Y30966D02*
X32530Y32080D01*
X31416Y29116D02*
Y30966D01*
X31220Y28920D02*
X31416Y29116D01*
X31152Y28920D02*
X31220D01*
X31013Y29059D02*
Y29126D01*
X31276Y29389D01*
Y31326D01*
X32150Y32200D01*
X32310D01*
X23120Y36490D02*
Y36720D01*
X23450Y37050D01*
X21920Y37040D02*
X22097D01*
X21840Y36780D02*
X21920Y37040D01*
X26464Y26480D02*
Y27420D01*
Y26480D02*
X26584Y26360D01*
X27201D01*
X27394Y26554D01*
X35560Y20060D02*
X36320D01*
X35380Y20240D02*
X35560Y20060D01*
X35090Y20240D02*
X35380D01*
X34640Y19790D02*
X35090Y20240D01*
X27100Y28320D02*
X27239Y28459D01*
X27100Y28101D02*
Y28320D01*
Y28101D02*
X27394Y27806D01*
X23417Y20540D02*
Y20670D01*
X23600D02*
X24195Y21265D01*
X26110D01*
Y20210D02*
Y21265D01*
X25340Y19440D02*
X26110Y20210D01*
X25340Y18920D02*
Y19440D01*
Y18920D02*
X27200D01*
X27550Y19270D01*
Y21751D01*
X26980Y22321D02*
X27550Y21751D01*
X26980Y22321D02*
Y23370D01*
X28772Y25162D01*
X28786D01*
X34370Y31630D02*
Y31641D01*
X34550Y31630D02*
X34770Y31850D01*
X30570Y28820D02*
Y28894D01*
X30874Y29198D01*
X38140Y25960D02*
Y26250D01*
X37920Y26470D02*
X38140Y26250D01*
X37548Y26470D02*
X37920D01*
X37298Y26720D02*
X37548Y26470D01*
X37298Y26720D02*
Y27300D01*
X37562Y27564D01*
X37550Y28170D02*
X37562Y27564D01*
X34451Y25399D02*
Y25799D01*
X40540Y17466D02*
X41050Y16956D01*
X30950Y25643D02*
X31152Y25440D01*
X30607Y25643D02*
X30950D01*
X30490Y25760D02*
X30607Y25643D01*
X30490Y25760D02*
Y26950D01*
X30900Y27360D01*
X31772D01*
X31975Y27157D01*
X32274D01*
X33362Y26069D01*
Y25840D02*
Y26069D01*
Y25840D02*
X33782Y25420D01*
X34011D01*
X23970Y19270D02*
Y19313D01*
X25610Y17850D02*
Y18587D01*
X19914Y17792D02*
X19970D01*
Y19040D02*
X24186Y23256D01*
Y24326D01*
X29040Y26000D02*
X29510Y26470D01*
Y27980D01*
X29380Y28110D02*
X29510Y27980D01*
X29380Y28110D02*
Y28948D01*
X28985Y28999D02*
X29380Y28948D01*
X28786Y29198D02*
X28985Y28999D01*
X19914Y17162D02*
X20080D01*
X20180Y17263D01*
Y18471D01*
X21499Y19790D01*
X21830D01*
X24120Y22080D01*
X26089D01*
X26169Y22160D01*
Y25851D01*
X25850Y26170D02*
X26169Y25851D01*
X28180Y29550D02*
X28290Y29440D01*
Y29138D02*
Y29440D01*
Y29138D02*
X28508Y28920D01*
X19914Y16848D02*
X20338D01*
X21770Y18280D01*
Y19650D01*
X21920D01*
X24190Y21920D01*
X26150D01*
X26310Y22080D01*
Y25990D01*
X26070Y26230D02*
X26310Y25990D01*
X26070Y26230D02*
Y26730D01*
X25990Y26810D02*
X26070Y26730D01*
X28000Y29410D02*
X28140Y29270D01*
Y29009D02*
Y29270D01*
Y29009D02*
X28369Y28781D01*
X36070Y29954D02*
X36283D01*
X35141Y27230D02*
X36070Y28159D01*
X31370Y27040D02*
X31470Y27140D01*
X30790Y27040D02*
X31370D01*
X30630Y26880D02*
X30790Y27040D01*
X30630Y25900D02*
Y26880D01*
Y25900D02*
X30720Y25810D01*
X31061D01*
X31292Y25579D01*
X20382Y21726D02*
X20706D01*
X22200Y23220D01*
X22720D01*
X31653Y27590D02*
Y27750D01*
X31987Y28085D01*
X20382Y21234D02*
X20915D01*
Y21435D01*
X21160Y21680D01*
X30120Y25780D02*
X30210Y25870D01*
Y27230D01*
X30906Y27926D01*
X31272D01*
X31709Y28363D01*
X20382Y20742D02*
X20650D01*
X21580Y21672D01*
Y21800D01*
X29540Y25860D02*
X29760Y26080D01*
Y26160D01*
X29830Y26230D01*
Y28020D01*
X29876Y28066D01*
X31134D01*
X31570Y28502D01*
X20382Y20250D02*
X20915D01*
Y20645D01*
X21000Y20730D01*
X30240Y25280D02*
X30350Y25390D01*
Y27090D01*
X30910Y27650D01*
X31274D01*
X31848Y28224D01*
X28229Y25719D02*
Y25786D01*
X28415Y25972D01*
X28480D01*
X28695Y26187D01*
Y26555D01*
X28890Y26750D01*
X35590Y28210D02*
Y30571D01*
X35840Y30821D01*
X36283D01*
X28369Y25579D02*
Y25647D01*
X29360Y26638D01*
Y27690D01*
X29290Y27760D02*
X29360Y27690D01*
X36687Y32553D02*
X36790Y32450D01*
X36283Y32553D02*
X36687D01*
X28090Y25858D02*
Y25925D01*
X28285Y26120D01*
X28430D01*
X28550Y26240D01*
Y26830D01*
X28720Y27000D01*
X36386Y28580D02*
X36570Y28764D01*
Y28870D01*
X36800Y29100D01*
X36906D01*
Y31541D01*
X36760Y31687D02*
X36906Y31541D01*
X36283Y31687D02*
X36760D01*
X35250Y21260D02*
X36300D01*
X35110Y21120D02*
X35250Y21260D01*
X30090Y20690D02*
X30280Y20880D01*
X26990Y26860D02*
X27157Y26693D01*
X27255D01*
X27534Y27945D02*
X27544D01*
X27797Y27614D01*
Y27417D02*
Y27614D01*
X27680Y27300D02*
X27797Y27417D01*
X27030Y27300D02*
X27680D01*
X26980Y27350D02*
X27030Y27300D01*
X27951Y28296D02*
Y28363D01*
Y28296D02*
X28310Y27937D01*
Y27590D02*
Y27937D01*
X27806Y27087D02*
X28310Y27590D01*
X26880Y27087D02*
X27806D01*
X26684Y26891D02*
X26880Y27087D01*
X26684Y26610D02*
Y26891D01*
X18940Y34120D02*
X19410D01*
Y30640D02*
Y34120D01*
Y30640D02*
X20630Y29420D01*
X22130D01*
X38060Y20040D02*
Y20480D01*
X37900Y20640D02*
X38060Y20480D01*
X37760Y20640D02*
X37900D01*
X32760Y25875D02*
Y26338D01*
X32405Y26693D02*
X32760Y26338D01*
X27811Y28224D02*
X27812D01*
X27410Y28693D02*
X27811Y28224D01*
X27410Y28693D02*
Y28784D01*
X37830Y27716D02*
Y33440D01*
Y27716D02*
X38150Y27396D01*
Y27030D02*
Y27396D01*
X38143Y27903D02*
Y28170D01*
X38050Y27810D02*
X38143Y27903D01*
X27673Y28085D02*
X28017Y27740D01*
X34960Y18050D02*
X35460D01*
X27320Y20340D02*
Y21628D01*
X26840Y22108D02*
X27320Y21628D01*
X26840Y22108D02*
Y23494D01*
X28647Y25301D01*
X33950Y19169D02*
Y19470D01*
X34520Y18146D02*
Y19470D01*
X34259Y17885D02*
X34520Y18146D01*
X27952Y35330D02*
Y35818D01*
Y35330D02*
X28010D01*
X28140Y35200D01*
Y33570D02*
Y35200D01*
X27400Y32830D02*
X28140Y33570D01*
X27400Y30830D02*
Y32830D01*
Y30830D02*
X27540Y30690D01*
X29140Y27320D02*
Y27380D01*
X29040Y27220D02*
X29140Y27320D01*
X28550Y27220D02*
X29040D01*
X27673Y26343D02*
X28550Y27220D01*
X27673Y26275D02*
Y26343D01*
X38613Y26685D02*
X39967D01*
X38549Y26620D02*
X38613Y26685D01*
X37737Y26620D02*
X38549D01*
X37557Y26800D02*
X37737Y26620D01*
X37557Y26800D02*
Y27030D01*
X38030Y20920D02*
Y21240D01*
X38240Y20710D02*
X38400D01*
X38580Y20530D01*
X29556Y20340D02*
Y20350D01*
X37950Y22070D02*
Y22470D01*
X37320Y21440D02*
X37950Y22070D01*
X37320Y18053D02*
Y21440D01*
X38591Y26941D02*
X39967D01*
X38410Y26760D02*
X38591Y26941D01*
X37920Y26760D02*
X38410D01*
X37880Y26800D02*
X37920Y26760D01*
X37880Y26800D02*
Y27246D01*
X37550Y27576D02*
Y28170D01*
X34200Y20930D02*
X34420Y20710D01*
X36560D01*
X36970Y21120D01*
Y21840D01*
X37232Y22102D01*
Y23782D01*
X37810Y24360D01*
Y26200D01*
X37712Y26298D02*
X37810Y26200D01*
X37260Y26298D02*
X37712D01*
X37158Y26400D02*
X37260Y26298D01*
X37158Y26400D02*
Y27440D01*
X37290Y27572D01*
Y28564D01*
X37557Y28831D01*
Y36520D01*
X25730Y16840D02*
X26340Y16230D01*
Y15760D02*
Y16230D01*
Y15760D02*
X27540Y14560D01*
X36800D01*
X37168Y14928D01*
Y16212D01*
X35430Y17457D02*
X35460D01*
X35430Y15670D02*
X36586D01*
X36676Y15760D01*
Y16212D01*
X32070Y36050D02*
Y36560D01*
X33120Y37610D01*
X34180Y37440D02*
Y37610D01*
X32240Y31400D02*
X32670Y31830D01*
Y32560D01*
X32517Y32713D02*
X32670Y32560D01*
X32517Y32713D02*
Y33643D01*
X33600Y31641D02*
X33777D01*
X33500Y31741D02*
X33600Y31641D01*
X33500Y31741D02*
Y32910D01*
X32910Y33500D02*
X33500Y32910D01*
X32910Y33500D02*
Y34950D01*
X32870Y34990D02*
X32910Y34950D01*
X31050Y34990D02*
X32870D01*
X29680Y36360D02*
X31050Y34990D01*
X29040Y36360D02*
X29680D01*
X28936Y36256D02*
X29040Y36360D01*
X28936Y35818D02*
Y36256D01*
X37530Y37070D02*
X37950Y37490D01*
X38540D01*
X38950Y37080D01*
X29556Y19100D02*
Y19110D01*
X28540Y19760D02*
X29200Y19100D01*
X28070Y19760D02*
X28540D01*
X27990Y19840D02*
X28070Y19760D01*
X27990Y19840D02*
Y20530D01*
X28040Y20580D01*
Y21710D01*
X29130Y21700D02*
X29458D01*
Y21550D02*
Y21700D01*
X36283Y32986D02*
X36704D01*
X37226Y32464D01*
Y28806D02*
Y32464D01*
X37098Y28678D02*
X37226Y28806D01*
X37098Y27850D02*
Y28678D01*
X36807Y27560D02*
X37098Y27850D01*
X31010Y26680D02*
X31040D01*
X31150Y26570D01*
Y25999D02*
Y26570D01*
Y25999D02*
X31431Y25719D01*
X33893Y31254D02*
X36283D01*
X33777Y31370D02*
X33893Y31254D01*
X33777Y31370D02*
Y31641D01*
X33576Y20200D02*
Y20271D01*
X31220Y19716D02*
Y19820D01*
X30840Y19336D02*
X31220Y19716D01*
X31157Y20085D02*
X31641D01*
X31119Y20124D02*
X31157Y20085D01*
X30570Y20124D02*
X31119D01*
X31415Y17445D02*
X31890Y17920D01*
Y19836D01*
X31641Y20085D02*
X31890Y19836D01*
X29458Y21370D02*
Y21550D01*
Y21370D02*
X29708Y21120D01*
X29868D01*
X35330Y22430D02*
X36290D01*
X30226Y21450D02*
Y21550D01*
X30330Y21450D02*
X30500Y21280D01*
X30029Y20350D02*
Y20559D01*
X30000Y21340D02*
X30090Y21250D01*
X29814Y21340D02*
X30000D01*
X29714Y21440D02*
X29814Y21340D01*
X29714Y21440D02*
Y21550D01*
X19206Y16848D02*
X19210D01*
X18880Y16110D02*
X19210Y16440D01*
X18720Y16110D02*
X18880D01*
X18932Y17792D02*
X19206D01*
X18860Y17720D02*
X18932Y17792D01*
X28720Y17467D02*
X28840D01*
Y17270D02*
X28960Y17150D01*
X29760D01*
X29934Y16976D01*
Y16242D02*
Y16976D01*
X29442Y16242D02*
Y16698D01*
X29360Y16780D02*
X29442Y16698D01*
X28920Y16780D02*
X29360D01*
X28220Y17480D02*
X28920Y16780D01*
X27720Y17480D02*
X28220D01*
X22481Y28873D02*
X22657D01*
X22480Y28874D02*
X22481Y28873D01*
X21755Y28874D02*
X22480D01*
X24460Y28873D02*
Y29760D01*
X24100Y30120D02*
X24460Y29760D01*
X23040Y30120D02*
X24100D01*
X22840Y29920D02*
X23040Y30120D01*
X22840Y29573D02*
Y29920D01*
X22400Y29133D02*
X22840Y29573D01*
X21440Y29133D02*
X22400D01*
X21120Y28813D02*
X21440Y29133D01*
X21120Y27816D02*
Y28813D01*
X20960Y27656D02*
X21120Y27816D01*
X20382Y27656D02*
X20960D01*
X23558Y28020D02*
Y28270D01*
Y28020D02*
X24730D01*
Y30270D01*
X20382Y22218D02*
X21000D01*
X22710Y23928D01*
Y27190D01*
X22657Y27243D02*
X22710Y27190D01*
X19920Y28148D02*
X20382D01*
X19840Y28068D02*
X19920Y28148D01*
X19840Y25950D02*
Y28068D01*
Y25950D02*
X19920Y25870D01*
X22290D01*
Y26540D01*
X28720Y18060D02*
Y18240D01*
X28170Y18790D02*
X28720Y18240D01*
X28160Y18790D02*
X28170D01*
X27820Y19130D02*
X28160Y18790D01*
X27820Y19130D02*
Y21330D01*
X32678Y25630D02*
X32780Y25528D01*
X32640Y25630D02*
X32678D01*
X32540Y25730D02*
X32640Y25630D01*
X32540Y25730D02*
Y26280D01*
X32266Y26554D02*
X32540Y26280D01*
X30226Y21550D02*
Y21690D01*
X31146D01*
X31908Y22452D01*
X32689D01*
X33651Y21490D01*
X29871Y20350D02*
Y20719D01*
X28720Y21870D02*
X29871Y20719D01*
X29401Y21910D02*
X29544D01*
X29714Y22080D01*
Y22180D01*
X24280Y32090D02*
Y32320D01*
X23710Y32890D02*
X24280Y32320D01*
X23710Y34160D02*
X24040Y34490D01*
X20382Y26672D02*
X21300D01*
X22657Y28029D01*
X22230Y18860D02*
X22550D01*
Y18210D02*
Y18860D01*
X22200Y17860D02*
X22550Y18210D01*
X22200Y15310D02*
Y17860D01*
X21730Y14840D02*
X22200Y15310D01*
X23260Y14370D02*
X23730Y14840D01*
X21440Y14370D02*
X23260D01*
X21260Y14550D02*
X21440Y14370D01*
X21260Y14550D02*
Y14710D01*
X19650Y16320D02*
X21260Y14710D01*
X19650Y16320D02*
Y16960D01*
X19447Y17162D02*
X19650Y16960D01*
X19206Y17162D02*
X19447D01*
X32240Y31400D02*
X32460D01*
X32266Y27806D02*
X32460Y28000D01*
X18940Y16500D02*
Y17378D01*
X19040Y17478D01*
X19206D01*
X30570Y19336D02*
X30570D01*
X30570Y17890D02*
Y19336D01*
X30440Y17760D02*
X30570Y17890D01*
X29930Y17760D02*
X30440D01*
X29680Y18010D02*
X29930Y17760D01*
X30029Y18171D02*
Y19110D01*
Y18171D02*
X30190Y18010D01*
X29320Y20124D02*
X29330D01*
X28825Y20120D02*
X29320D01*
X28740Y20035D02*
X28825Y20120D01*
X28241Y20035D02*
X28740D01*
X19940Y33120D02*
X21270Y31790D01*
Y31514D02*
Y31790D01*
Y31514D02*
X21849Y30935D01*
X29871Y20124D02*
Y20350D01*
X28647Y29059D02*
X28657D01*
Y28982D02*
X28840Y28799D01*
Y27980D02*
Y28799D01*
X28600Y27740D02*
X28840Y27980D01*
X18760Y18750D02*
Y21800D01*
Y18750D02*
X19000D01*
X19510Y18240D01*
Y17648D02*
Y18240D01*
Y17648D02*
X19680Y17478D01*
X19914D01*
X31281Y28781D02*
X31292D01*
X31128Y28550D02*
X31281Y28703D01*
X29790Y28550D02*
X31128D01*
X21755Y28281D02*
X22179D01*
X27534Y26415D02*
Y26482D01*
X28492Y27440D01*
X28880D01*
X29060Y27620D01*
Y28730D01*
X27540Y32150D02*
X27800Y31890D01*
X27540Y32150D02*
Y32510D01*
X28310Y33280D01*
Y34216D01*
X28444Y34350D01*
Y35818D01*
X32127Y26415D02*
Y26482D01*
X31709Y26900D02*
X32127Y26482D01*
X30880Y26900D02*
X31709D01*
X30790Y26810D02*
X30880Y26900D01*
X30790Y26090D02*
Y26810D01*
Y26090D02*
X30850Y26030D01*
X27160Y18073D02*
X27720D01*
X22000Y18450D02*
X22230D01*
X21910Y18540D02*
X22000Y18450D01*
X21910Y18540D02*
Y19510D01*
X23970Y19313D02*
Y19510D01*
X25610Y18587D02*
X27080D01*
X33810Y26123D02*
Y26443D01*
X32586Y27667D02*
X33810Y26443D01*
X32405Y27667D02*
X32586D01*
X32640Y24660D02*
X34040D01*
X32180Y25120D02*
X32640Y24660D01*
X32180Y25120D02*
Y25804D01*
X31848Y26136D02*
X32180Y25804D01*
X36320Y20060D02*
X36800D01*
X37130Y20390D01*
Y21620D01*
X37400Y21890D01*
Y23710D01*
X37960Y24270D01*
Y25440D01*
X38110Y25590D01*
X31528Y26610D02*
X31550D01*
X31440Y26522D02*
X31528Y26610D01*
X31440Y26333D02*
Y26522D01*
Y26333D02*
X31709Y26064D01*
Y25997D02*
Y26064D01*
X27951Y25997D02*
X27961D01*
Y26074D02*
X28237Y26350D01*
X28290D01*
X39210Y23040D02*
Y25870D01*
Y23040D02*
X39542Y22708D01*
X40018D01*
X34390Y25799D02*
X34451D01*
X34011Y25420D02*
X34390Y25799D01*
X22642Y36883D02*
Y37039D01*
X22147Y36640D02*
X22390Y36883D01*
X22147Y36490D02*
Y36640D01*
X34040Y21656D02*
X34201Y21495D01*
X32266Y23466D02*
Y23770D01*
X30874Y25162D02*
X32266Y23770D01*
X32934Y24134D02*
Y24270D01*
X31013Y25301D02*
X32044Y24270D01*
X31136Y29739D02*
Y30164D01*
X31040Y30260D02*
X31136Y30164D01*
X30730Y30260D02*
X31040D01*
X30560Y30090D02*
X30730Y30260D01*
X29100Y30090D02*
X30560D01*
X29010Y30000D02*
X29100Y30090D01*
X29010Y29877D02*
Y30000D01*
Y29877D02*
X29204Y29683D01*
Y29616D02*
Y29683D01*
X31777Y32227D02*
Y32340D01*
X31136Y31586D02*
X31777Y32227D01*
X30735Y29337D02*
X31136Y29739D01*
X30456Y29616D02*
X30486D01*
X30910Y30040D01*
X31780Y30050D02*
Y30941D01*
X31840Y31001D01*
X29343Y29755D02*
X29730D01*
X40018Y21724D02*
X40680D01*
X41640Y22684D01*
Y25740D01*
X41090Y26290D02*
X41640Y25740D01*
X41090Y26290D02*
Y27002D01*
X40640Y27452D02*
X41090Y27002D01*
X39967Y27452D02*
X40640D01*
X20847Y36480D02*
Y36548D01*
X21348Y37049D01*
X31410Y16242D02*
Y17075D01*
X31040Y17445D02*
X31410Y17075D01*
X30189Y17445D02*
X31040D01*
X20382Y27164D02*
X20944D01*
X21300Y27520D01*
Y28640D01*
X21534Y28874D01*
X21755D01*
X38720Y26429D02*
X39967D01*
X38400Y26109D02*
X38720Y26429D01*
X38400Y24250D02*
Y26109D01*
X33710Y17888D02*
X33769Y17947D01*
X34198D01*
X34259Y17885D01*
X23596Y18420D02*
Y18880D01*
X23206Y19270D02*
X23596Y18880D01*
X22230Y19270D02*
X23206D01*
X39345Y18275D02*
X41050D01*
X38820Y17750D02*
X39345Y18275D01*
X37120Y17750D02*
X38820D01*
X37040Y17670D02*
X37120Y17750D01*
X37040Y17008D02*
Y17670D01*
Y17008D02*
X37168Y16880D01*
Y16212D02*
Y16880D01*
X25555Y34485D02*
X26260Y33780D01*
X24571Y34485D02*
X25555D01*
X34130Y34720D02*
X34360D01*
X34050Y34640D02*
X34130Y34720D01*
X34050Y31641D02*
Y34640D01*
X33777Y31641D02*
X34050D01*
X24010Y28873D02*
X24460D01*
X24000Y28863D02*
X24010Y28873D01*
X23558Y28863D02*
X24000D01*
X37190Y37410D02*
X37530Y37070D01*
X36500Y37410D02*
X37190D01*
X36150Y37060D02*
X36500Y37410D01*
X33651Y20635D02*
Y20925D01*
X33576Y20560D02*
X33651Y20635D01*
X33576Y20271D02*
Y20560D01*
X33925Y20930D02*
X34200D01*
X33920Y20925D02*
X33925Y20930D01*
X33651Y20925D02*
X33920D01*
X29714Y18574D02*
Y19110D01*
X29680Y18540D02*
X29714Y18574D01*
X29680Y18010D02*
Y18540D01*
X29714Y19110D02*
X29871D01*
X21811Y34515D02*
X22351D01*
X23205Y34490D02*
X24040D01*
X23180Y34515D02*
X23205Y34490D01*
X22351Y34515D02*
X23180D01*
X24305Y34485D02*
X24571D01*
X24300Y34490D02*
X24305Y34485D01*
X24040Y34490D02*
X24300D01*
X26266Y31245D02*
Y32340D01*
X26241Y31220D02*
X26266Y31245D01*
X26241Y30140D02*
Y31220D01*
X26260Y33055D02*
Y33780D01*
Y33055D02*
X26266Y33050D01*
Y32340D02*
Y33050D01*
X20382Y26180D02*
Y26672D01*
X23110Y28270D02*
X23558D01*
X23100Y28280D02*
X23110Y28270D01*
X22657Y28280D02*
X23100D01*
X24090Y30910D02*
X24620D01*
X23235D02*
X24090D01*
X23220Y30925D02*
X23235Y30910D01*
X22369Y30925D02*
X23220D01*
X22110D02*
X22369D01*
X22100Y30935D02*
X22110Y30925D01*
X21849Y30935D02*
X22100D01*
X34400Y25020D02*
X34410D01*
X34040Y24660D02*
X34400Y25020D01*
X33925Y21495D02*
X34201D01*
X33920Y21490D02*
X33925Y21495D01*
X33651Y21490D02*
X33920D01*
X29679Y17445D02*
X30189D01*
X20382Y28148D02*
Y28640D01*
X36370Y16926D02*
Y17457D01*
X36184Y16740D02*
X36370Y16926D01*
X36184Y16212D02*
Y16740D01*
X36695Y36828D02*
Y37059D01*
Y36828D02*
X36773Y36750D01*
Y36520D02*
Y36750D01*
X38075Y36825D02*
Y37069D01*
Y36825D02*
X38150Y36750D01*
Y36520D02*
Y36750D01*
X39495Y36838D02*
Y37079D01*
Y36838D02*
X39583Y36750D01*
Y36520D02*
Y36750D01*
X23995Y37025D02*
Y37049D01*
X23490Y36520D02*
X23995Y37025D01*
X23490Y36500D02*
Y36520D01*
X33806Y35649D02*
Y36547D01*
X33767Y35610D02*
X33806Y35649D01*
X33767Y34720D02*
Y35610D01*
Y34340D02*
Y34720D01*
Y34340D02*
X33787Y34320D01*
Y33950D02*
Y34320D01*
D19*
X38030Y21240D02*
D03*
X38060Y20040D02*
D03*
X36320Y20060D02*
D03*
X36300Y21260D02*
D03*
X37950Y22470D02*
D03*
X36290Y22430D02*
D03*
X32070Y37450D02*
D03*
Y36050D02*
D03*
D20*
X40018Y21232D02*
D03*
Y21724D02*
D03*
Y22216D02*
D03*
Y22708D02*
D03*
X20382Y26672D02*
D03*
Y26180D02*
D03*
Y28640D02*
D03*
Y28148D02*
D03*
Y27656D02*
D03*
Y27164D02*
D03*
Y21234D02*
D03*
Y21726D02*
D03*
Y22218D02*
D03*
Y22710D02*
D03*
Y20250D02*
D03*
Y20742D02*
D03*
D21*
X41042Y23645D02*
D03*
Y20295D02*
D03*
X19358Y25243D02*
D03*
Y29577D02*
D03*
Y23647D02*
D03*
Y19313D02*
D03*
D22*
X23970Y19313D02*
D03*
X24344Y18420D02*
D03*
X23596D02*
D03*
X33806Y36547D02*
D03*
X34554D02*
D03*
X34180Y37440D02*
D03*
D23*
X23417Y20540D02*
D03*
X24010D02*
D03*
X37550Y28170D02*
D03*
X38143D02*
D03*
X38140Y25960D02*
D03*
X37547D02*
D03*
X37557Y27030D02*
D03*
X38150D02*
D03*
X21440Y36480D02*
D03*
X20847D02*
D03*
X22740Y36490D02*
D03*
X22147D02*
D03*
X24083Y36500D02*
D03*
X23490D02*
D03*
X33777Y31641D02*
D03*
X34370D02*
D03*
Y32411D02*
D03*
X33777D02*
D03*
X34370Y33181D02*
D03*
X33777D02*
D03*
X38990Y36520D02*
D03*
X39583D02*
D03*
X37557D02*
D03*
X38150D02*
D03*
X36180D02*
D03*
X36773D02*
D03*
X34360Y34720D02*
D03*
X33767D02*
D03*
X34380Y33950D02*
D03*
X33787D02*
D03*
D24*
X23940Y26540D02*
D03*
X22290D02*
D03*
X38400Y24250D02*
D03*
X36750D02*
D03*
D25*
X38950Y37080D02*
D03*
X39495Y37079D02*
D03*
X37530Y37070D02*
D03*
X38075Y37069D02*
D03*
X36150Y37060D02*
D03*
X36695Y37059D02*
D03*
X23995Y37049D02*
D03*
X23450Y37050D02*
D03*
X22642Y37039D02*
D03*
X22097Y37040D02*
D03*
X21348Y37049D02*
D03*
X20803Y37050D02*
D03*
X34350Y30820D02*
D03*
X33785Y30821D02*
D03*
D26*
X29428Y35818D02*
D03*
X28936D02*
D03*
X28444D02*
D03*
X27952D02*
D03*
X30426Y16242D02*
D03*
X29934D02*
D03*
X29442D02*
D03*
X28950D02*
D03*
X31410D02*
D03*
X30918D02*
D03*
X37168Y16212D02*
D03*
X36676D02*
D03*
X36184D02*
D03*
X35692D02*
D03*
D27*
X27015Y36842D02*
D03*
X30365D02*
D03*
X28013Y15218D02*
D03*
X32347D02*
D03*
X34755Y15188D02*
D03*
X38105D02*
D03*
D28*
X32600Y23800D02*
D03*
X32266Y23466D02*
D03*
X32934Y24134D02*
D03*
D29*
X24460Y28280D02*
D03*
Y28873D02*
D03*
X21755Y28281D02*
D03*
Y28874D02*
D03*
X22657Y28280D02*
D03*
Y28873D02*
D03*
X23558Y28270D02*
D03*
Y28863D02*
D03*
X36370Y18050D02*
D03*
Y17457D02*
D03*
X37320Y17460D02*
D03*
Y18053D02*
D03*
X38190Y17450D02*
D03*
Y18043D02*
D03*
X35460Y18050D02*
D03*
Y17457D02*
D03*
X25610Y19180D02*
D03*
Y18587D02*
D03*
X27720Y18073D02*
D03*
Y17480D02*
D03*
X28720Y18060D02*
D03*
Y17467D02*
D03*
D30*
X34451Y25799D02*
D03*
X34870Y25380D02*
D03*
D31*
X34040Y24660D02*
D03*
X33641Y25060D02*
D03*
X26640Y29740D02*
D03*
X26241Y30140D02*
D03*
X25891Y29780D02*
D03*
X26290Y29380D02*
D03*
X31908Y22452D02*
D03*
X31509Y22852D02*
D03*
X34410Y25020D02*
D03*
X34011Y25420D02*
D03*
D32*
X22230Y18450D02*
D03*
Y19270D02*
D03*
Y18860D02*
D03*
D33*
X25460Y20850D02*
D03*
Y22500D02*
D03*
D34*
X29679Y17445D02*
D03*
X29680Y18010D02*
D03*
X28240Y19470D02*
D03*
X28241Y20035D02*
D03*
X24571Y34485D02*
D03*
X24570Y33920D02*
D03*
X34201Y21495D02*
D03*
X34200Y20930D02*
D03*
X33710Y17888D02*
D03*
X33711Y18453D02*
D03*
X34259Y17885D02*
D03*
X34260Y18450D02*
D03*
X24040Y34490D02*
D03*
X24039Y33925D02*
D03*
X21811Y34515D02*
D03*
X21810Y33950D02*
D03*
X22351Y34515D02*
D03*
X22350Y33950D02*
D03*
X22369Y30925D02*
D03*
X22370Y31490D02*
D03*
X21849Y30935D02*
D03*
X21850Y31500D02*
D03*
X24620Y30910D02*
D03*
X24621Y31475D02*
D03*
X24090Y30910D02*
D03*
X24091Y31475D02*
D03*
X30189Y17445D02*
D03*
X30190Y18010D02*
D03*
X31641Y20085D02*
D03*
X31640Y19520D02*
D03*
X33651Y21490D02*
D03*
X33651Y20925D02*
D03*
D35*
X34324Y19169D02*
D03*
X33576D02*
D03*
X33950D02*
D03*
X33576Y20271D02*
D03*
X34324D02*
D03*
X22460Y32160D02*
D03*
X21712D02*
D03*
X22086D02*
D03*
X21712Y33262D02*
D03*
X22460D02*
D03*
X24654Y32090D02*
D03*
X23906D02*
D03*
X24280D02*
D03*
X23906Y33192D02*
D03*
X24654D02*
D03*
D36*
X32240Y31400D02*
D03*
X31840Y31001D02*
D03*
X33930Y29790D02*
D03*
X33530Y29391D02*
D03*
X27662Y22752D02*
D03*
X28062Y23151D02*
D03*
D37*
X36283Y31254D02*
D03*
Y29954D02*
D03*
Y30387D02*
D03*
Y30821D02*
D03*
Y31687D02*
D03*
Y32120D02*
D03*
Y32553D02*
D03*
Y32986D02*
D03*
Y33419D02*
D03*
D38*
X36530Y29443D02*
D03*
D39*
X40310D02*
D03*
Y35545D02*
D03*
D40*
X36530Y35230D02*
D03*
D41*
X41050Y18275D02*
D03*
Y16956D02*
D03*
D42*
X41735Y16714D02*
D03*
Y18525D02*
D03*
D43*
X41660Y26350D02*
D03*
Y27531D02*
D03*
D44*
X41211Y25366D02*
D03*
Y28515D02*
D03*
D45*
X40203Y25641D02*
D03*
Y28240D02*
D03*
D46*
X39967Y26429D02*
D03*
Y26685D02*
D03*
Y26941D02*
D03*
Y27196D02*
D03*
Y27452D02*
D03*
D47*
X29330Y20124D02*
D03*
Y19966D02*
D03*
Y19809D02*
D03*
Y19651D02*
D03*
Y19494D02*
D03*
Y19336D02*
D03*
X30570D02*
D03*
Y19494D02*
D03*
Y19651D02*
D03*
Y19809D02*
D03*
Y19966D02*
D03*
Y20124D02*
D03*
D48*
X29556Y19110D02*
D03*
X29714D02*
D03*
X29871D02*
D03*
X30029D02*
D03*
X30186D02*
D03*
X30344D02*
D03*
Y20350D02*
D03*
X30186D02*
D03*
X30029D02*
D03*
X29871D02*
D03*
X29714D02*
D03*
X29556D02*
D03*
D49*
X30226Y22180D02*
D03*
X29970D02*
D03*
X29714D02*
D03*
X29458D02*
D03*
Y21550D02*
D03*
X29714D02*
D03*
X29970D02*
D03*
X30226D02*
D03*
D50*
X30317Y24605D02*
D03*
X30456Y24744D02*
D03*
X30596Y24883D02*
D03*
X30735Y25023D02*
D03*
X30874Y25162D02*
D03*
X31013Y25301D02*
D03*
X31152Y25440D02*
D03*
X31292Y25579D02*
D03*
X31431Y25719D02*
D03*
X31570Y25858D02*
D03*
X31709Y25997D02*
D03*
X31848Y26136D02*
D03*
X31987Y26275D02*
D03*
X32127Y26415D02*
D03*
X32266Y26554D02*
D03*
X32405Y26693D02*
D03*
X29343Y29755D02*
D03*
X29204Y29616D02*
D03*
X29065Y29477D02*
D03*
X28925Y29337D02*
D03*
X28786Y29198D02*
D03*
X28647Y29059D02*
D03*
X28508Y28920D02*
D03*
X28369Y28781D02*
D03*
X28229Y28641D02*
D03*
X28090Y28502D02*
D03*
X27951Y28363D02*
D03*
X27812Y28224D02*
D03*
X27673Y28085D02*
D03*
X27534Y27945D02*
D03*
X27394Y27806D02*
D03*
X27255Y27667D02*
D03*
D51*
X32405Y27667D02*
D03*
X32266Y27806D02*
D03*
X32127Y27945D02*
D03*
X31987Y28085D02*
D03*
X31848Y28224D02*
D03*
X31709Y28363D02*
D03*
X31570Y28502D02*
D03*
X31431Y28641D02*
D03*
X31292Y28781D02*
D03*
X31152Y28920D02*
D03*
X31013Y29059D02*
D03*
X30874Y29198D02*
D03*
X30735Y29337D02*
D03*
X30596Y29477D02*
D03*
X30456Y29616D02*
D03*
X30317Y29755D02*
D03*
X27255Y26693D02*
D03*
X27394Y26554D02*
D03*
X27534Y26415D02*
D03*
X27673Y26275D02*
D03*
X27812Y26136D02*
D03*
X27951Y25997D02*
D03*
X28090Y25858D02*
D03*
X28229Y25719D02*
D03*
X28369Y25579D02*
D03*
X28508Y25440D02*
D03*
X28647Y25301D02*
D03*
X28786Y25162D02*
D03*
X28925Y25023D02*
D03*
X29065Y24883D02*
D03*
X29204Y24744D02*
D03*
X29343Y24605D02*
D03*
D52*
X19206Y17792D02*
D03*
X19914D02*
D03*
X19206Y17478D02*
D03*
X19914D02*
D03*
X19206Y17162D02*
D03*
X19914D02*
D03*
X19206Y16848D02*
D03*
X19914D02*
D03*
D95*
X40377Y26151D02*
D03*
Y27731D02*
D03*
D96*
X41470Y37500D02*
D03*
X40010Y34540D02*
D03*
X39160Y35270D02*
D03*
X38670Y35830D02*
D03*
X20000Y37610D02*
D03*
X25340Y35200D02*
D03*
X25250Y35880D02*
D03*
X24490Y35890D02*
D03*
X18670Y15620D02*
D03*
X20350Y14790D02*
D03*
X39290Y14940D02*
D03*
X39210Y16000D02*
D03*
X39160Y16830D02*
D03*
X40430Y32100D02*
D03*
X40500Y32770D02*
D03*
X38590Y32530D02*
D03*
X38630Y31650D02*
D03*
X38590Y30600D02*
D03*
X38600Y29710D02*
D03*
X18990Y27930D02*
D03*
Y27230D02*
D03*
X19020Y26480D02*
D03*
X26530Y29010D02*
D03*
X26890Y28530D02*
D03*
X32710Y19220D02*
D03*
X30344Y18440D02*
D03*
X35110Y24390D02*
D03*
X33770Y23730D02*
D03*
X33460Y22810D02*
D03*
X29000Y21950D02*
D03*
X29020Y34260D02*
D03*
X29730Y34300D02*
D03*
X24520Y26090D02*
D03*
X21140Y22710D02*
D03*
X35570Y23140D02*
D03*
X38090Y17120D02*
D03*
X33079Y25060D02*
D03*
X31636Y29760D02*
D03*
X23280Y29900D02*
D03*
X35130Y32770D02*
D03*
X30140Y27671D02*
D03*
X27860Y29190D02*
D03*
X35350Y33980D02*
D03*
X30100Y32900D02*
D03*
X30010Y29070D02*
D03*
X34370Y32800D02*
D03*
X24440Y30560D02*
D03*
X35920Y18050D02*
D03*
X27093Y20617D02*
D03*
X35267Y19866D02*
D03*
X29528Y20690D02*
D03*
X28620Y21020D02*
D03*
Y21470D02*
D03*
X38910Y22220D02*
D03*
X27266Y25590D02*
D03*
X32310Y32200D02*
D03*
X23120Y36490D02*
D03*
X21840Y36780D02*
D03*
X26464Y27420D02*
D03*
X27239Y28459D02*
D03*
X34770Y31850D02*
D03*
X30570Y28820D02*
D03*
X35410Y21680D02*
D03*
X40540Y17466D02*
D03*
X23590Y19270D02*
D03*
X25610Y17850D02*
D03*
X24186Y24326D02*
D03*
X29040Y26000D02*
D03*
X35141Y27230D02*
D03*
X31470Y27140D02*
D03*
X22720Y23220D02*
D03*
X31653Y27590D02*
D03*
X21160Y21680D02*
D03*
X30120Y25780D02*
D03*
X21580Y21800D02*
D03*
X29540Y25860D02*
D03*
X21000Y20730D02*
D03*
X30240Y25280D02*
D03*
X28890Y26750D02*
D03*
X35590Y28210D02*
D03*
X29290Y27760D02*
D03*
X36790Y32450D02*
D03*
X28720Y27000D02*
D03*
X36386Y28580D02*
D03*
X35110Y21120D02*
D03*
X30280Y20880D02*
D03*
X26990Y26860D02*
D03*
X26980Y27350D02*
D03*
X26684Y26610D02*
D03*
X22130Y29420D02*
D03*
X37760Y20640D02*
D03*
X32760Y25875D02*
D03*
X27410Y28784D02*
D03*
X37830Y33440D02*
D03*
X38050Y27810D02*
D03*
X28017Y27740D02*
D03*
X34960Y18050D02*
D03*
X27320Y20340D02*
D03*
X27540Y30690D02*
D03*
X29140Y27380D02*
D03*
X37850Y18500D02*
D03*
X28940Y20340D02*
D03*
X28040Y21710D02*
D03*
X36807Y27560D02*
D03*
X31010Y26680D02*
D03*
X33090Y20200D02*
D03*
X31220Y19820D02*
D03*
X29868Y21120D02*
D03*
X35330Y22430D02*
D03*
X18720Y16110D02*
D03*
X18860Y17720D02*
D03*
X27820Y21330D02*
D03*
X32780Y25528D02*
D03*
X18940Y16500D02*
D03*
X22320Y20670D02*
D03*
X27440Y15900D02*
D03*
X28600Y27740D02*
D03*
X18760Y21800D02*
D03*
X29790Y28550D02*
D03*
X22179Y28281D02*
D03*
X29060Y28730D02*
D03*
X27800Y31890D02*
D03*
X30850Y26030D02*
D03*
X27160Y18073D02*
D03*
X27080Y18587D02*
D03*
X33810Y26123D02*
D03*
X26610Y21560D02*
D03*
X29343Y24293D02*
D03*
X20690Y23020D02*
D03*
X38110Y25590D02*
D03*
X31550Y26610D02*
D03*
X28290Y26350D02*
D03*
X39210Y25870D02*
D03*
X30910Y30040D02*
D03*
X31780Y30050D02*
D03*
X29730Y29755D02*
D03*
D97*
X25400Y29860D02*
X25880Y29380D01*
X24210Y33080D02*
X25400Y31890D01*
Y29860D02*
Y31890D01*
X34880Y24910D02*
X34882Y24912D01*
X34880Y23830D02*
Y24850D01*
X35100Y24400D02*
Y24630D01*
X34880Y23830D02*
X35570Y23140D01*
X35100Y24400D02*
X35110Y24390D01*
X34880Y24850D02*
X35100Y24630D01*
X34880Y24850D02*
Y24910D01*
X34862Y25372D02*
X34870Y25380D01*
X34862Y25148D02*
X34882Y25128D01*
X34862Y25148D02*
Y25372D01*
X34882Y24912D02*
Y25128D01*
X40010Y20080D02*
Y21232D01*
X31878Y27736D02*
X31910Y27705D01*
X23906Y33080D02*
X24210D01*
X29504Y24806D02*
X29705Y24605D01*
X26470Y19240D02*
Y26150D01*
X20660Y22710D02*
Y22990D01*
X33020Y19310D02*
X33340Y19630D01*
X32809Y18980D02*
X33020Y19191D01*
X33340Y19630D02*
X34640D01*
X33020Y19191D02*
Y19310D01*
X32269Y19321D02*
X32611Y18980D01*
X32809D01*
X32269Y19321D02*
Y20529D01*
X33429Y18171D02*
X33711Y18453D01*
X31760Y16502D02*
X33429Y18171D01*
X32269Y20529D02*
X32960Y21220D01*
X33439Y29391D02*
X33530D01*
X33130Y29700D02*
Y32990D01*
Y29700D02*
X33439Y29391D01*
X31551Y22810D02*
X33460D01*
X31509Y22852D02*
X31551Y22810D01*
X29428Y35122D02*
X29730Y34820D01*
X32290D02*
X32741Y34369D01*
X29730Y34820D02*
X32290D01*
X30860Y37450D02*
X31660D01*
X30850Y37460D02*
X30860Y37450D01*
X30730Y37580D02*
X30850Y37460D01*
X31570Y35680D02*
Y35710D01*
X31780Y35500D02*
X32400D01*
X31750D02*
X31780D01*
X32000Y35280D01*
X31570Y35710D02*
X31780Y35500D01*
X22740Y36200D02*
Y36290D01*
X21440Y36260D02*
Y36270D01*
Y34320D02*
Y36260D01*
X34350Y26200D02*
Y27650D01*
X34870Y27130D02*
X35040Y26960D01*
X34350Y27650D02*
X34870Y27130D01*
X34350Y27650D02*
Y29600D01*
X34870Y25630D02*
Y27130D01*
X32874Y25060D02*
X33079D01*
X29504Y24806D02*
X29600Y24901D01*
X20660Y22710D02*
X21140D01*
X20382D02*
X20660D01*
X26410Y19180D02*
X26470Y19240D01*
X34324Y18834D02*
Y18934D01*
X35760Y16558D02*
Y16658D01*
X28950Y15760D02*
Y15900D01*
X24654Y31864D02*
Y32090D01*
Y31793D02*
Y31864D01*
X19940Y34750D02*
X20480D01*
X22460Y31920D02*
Y32160D01*
Y31870D02*
Y31920D01*
X27440Y15900D02*
X28950D01*
X25240Y19659D02*
Y20850D01*
X33569Y33181D02*
X33777D01*
X33470Y33280D02*
X33569Y33181D01*
X33470Y33280D02*
Y34880D01*
X33070Y35280D02*
X33470Y34880D01*
X32000Y35280D02*
X33070D01*
X31570Y35710D02*
Y37360D01*
X31660Y37450D01*
X32070D01*
X40010Y21232D02*
X40018D01*
X40010Y20080D02*
X41330Y18760D01*
Y17990D02*
Y18760D01*
X40300Y17990D02*
X41330D01*
X39830Y17450D02*
X40300Y17990D01*
X38190Y17450D02*
X39830D01*
X23906Y33080D02*
Y33192D01*
X25880Y29380D02*
X26290D01*
X25470Y28560D02*
X26290Y29380D01*
X25470Y27040D02*
Y28560D01*
X24520Y26090D02*
X25470Y27040D01*
X29343Y24293D02*
Y24605D01*
X27910Y23030D02*
X29343Y24293D01*
Y24605D02*
Y24644D01*
X29504Y24806D01*
X29705Y24605D02*
X30317D01*
X34350Y29600D02*
Y30820D01*
X34001Y25851D02*
X34350Y26200D01*
X33632Y25851D02*
X34001D01*
X33570Y25913D02*
X33632Y25851D01*
X33570Y25913D02*
Y26087D01*
X32340Y27317D02*
X33570Y26087D01*
X32053Y27317D02*
X32340D01*
X31910Y27460D02*
X32053Y27317D01*
X31910Y27460D02*
Y27705D01*
X31878Y27736D02*
X32088Y27945D01*
X32127D01*
X36283Y32120D02*
X36670D01*
X37066Y31724D01*
Y28940D02*
Y31724D01*
X36750Y28624D02*
X37066Y28940D01*
X36750Y28380D02*
Y28624D01*
X35330Y26960D02*
X36750Y28380D01*
X35040Y26960D02*
X35330D01*
X38090Y17120D02*
X38190Y17220D01*
Y17450D01*
X33079Y25060D02*
X33641D01*
X36750Y23780D02*
Y24250D01*
X35830Y22860D02*
X36750Y23780D01*
X35360Y22860D02*
X35830D01*
X35090Y22590D02*
X35360Y22860D01*
X35090Y22300D02*
Y22590D01*
Y22300D02*
X35200Y22190D01*
X35600D01*
X35810Y21980D01*
Y21600D02*
Y21980D01*
X35630Y21420D02*
X35810Y21600D01*
X34670Y21420D02*
X35630D01*
X34470Y21220D02*
X34670Y21420D01*
X32960Y21220D02*
X34470D01*
X34640Y19630D02*
X34720Y19550D01*
Y17910D02*
Y19550D01*
Y17910D02*
X34880Y17750D01*
X35680D01*
X35760Y17670D01*
X35692Y16490D02*
X35760Y16558D01*
X35692Y16212D02*
Y16490D01*
X28950Y15760D02*
X29030Y15680D01*
X31680D01*
X31760Y15760D01*
Y16502D01*
X34260Y18450D02*
X34324Y18834D01*
X33983Y18450D02*
X34260D01*
X33711Y18453D02*
X33983Y18450D01*
X33711Y18240D02*
Y18453D01*
X33631Y18160D02*
X33711Y18240D01*
X33440Y18160D02*
X33631D01*
X33440Y17600D02*
Y18160D01*
Y17600D02*
X33830Y17210D01*
X34340D01*
X34880Y17750D01*
X35760Y16658D02*
Y17670D01*
X31570Y35680D02*
X31750Y35500D01*
X32400D02*
X32740Y35840D01*
Y36480D01*
X33130Y36870D01*
X34760D01*
X35540Y37650D01*
X39040D01*
X39220Y37470D01*
Y36520D02*
Y37470D01*
X38990Y36520D02*
X39220D01*
X29428Y35122D02*
Y35818D01*
X32741Y33379D02*
Y34369D01*
Y33379D02*
X33130Y32990D01*
X21360Y36180D02*
X21440Y36260D01*
X20640Y36180D02*
X21360D01*
X20530Y36290D02*
X20640Y36180D01*
X20530Y36290D02*
Y37270D01*
X20840Y37580D01*
X30730D01*
X23940Y26540D02*
Y27520D01*
X24280Y27860D01*
X24800D01*
X24890Y27950D01*
Y31190D01*
X24376D02*
X24890D01*
X24091Y31475D02*
X24376Y31190D01*
X36180Y36020D02*
Y36520D01*
X35800Y35640D02*
X36180Y36020D01*
X35800Y32240D02*
Y35640D01*
Y32240D02*
X35920Y32120D01*
X36283D01*
X24150Y22500D02*
X25460D01*
X22320Y20670D02*
X24150Y22500D01*
X28950Y15900D02*
Y16242D01*
X26240Y27667D02*
X27255D01*
X26150Y27577D02*
X26240Y27667D01*
X26150Y26970D02*
Y27577D01*
Y26970D02*
X26230Y26890D01*
Y26390D02*
Y26890D01*
Y26390D02*
X26470Y26150D01*
X20660Y22990D02*
X20690Y23020D01*
X25610Y19180D02*
X26410D01*
X31987Y26275D02*
X32347Y25916D01*
Y25587D02*
Y25916D01*
Y25587D02*
X32874Y25060D01*
X29600Y24901D02*
Y25120D01*
X29300Y25420D02*
X29600Y25120D01*
X29300Y25420D02*
Y26020D01*
X29670Y26390D01*
Y28140D01*
X29540Y28270D02*
X29670Y28140D01*
X29540Y28270D02*
Y28978D01*
X30317Y29755D01*
X35200Y25960D02*
X37547D01*
X34870Y25630D02*
X35200Y25960D01*
X34870Y25380D02*
Y25630D01*
X30317Y24044D02*
Y24605D01*
Y24044D02*
X31509Y22852D01*
X25240Y20850D02*
X25460D01*
X25180Y19599D02*
X25240Y19659D01*
X25180Y18821D02*
Y19599D01*
Y18821D02*
X25240Y18761D01*
Y16330D02*
Y18761D01*
Y16330D02*
X25730Y15840D01*
X28700Y37460D02*
X30850D01*
X27600Y36360D02*
X28700Y37460D01*
X27600Y35500D02*
Y36360D01*
X26720Y34620D02*
X27600Y35500D01*
X26720Y33010D02*
Y34620D01*
Y33010D02*
X27053Y32677D01*
Y32340D02*
Y32677D01*
X21810Y33648D02*
Y33950D01*
X21712Y33550D02*
X21810Y33648D01*
X21712Y33262D02*
Y33550D01*
X19940Y34750D02*
Y35120D01*
X20480Y34750D02*
X20840Y34390D01*
Y33032D02*
Y34390D01*
Y33032D02*
X21712Y32160D01*
X37760Y17450D02*
X38190D01*
X37750Y17460D02*
X37760Y17450D01*
X37320Y17460D02*
X37750D01*
X33620Y29341D02*
X34091D01*
X34350Y29600D01*
X21440Y34320D02*
X21810Y33950D01*
X21440Y36270D02*
Y36480D01*
Y36270D02*
X21520Y36190D01*
X22640D01*
X22740Y36290D01*
Y36490D01*
X24083Y36283D02*
Y36500D01*
X24000Y36200D02*
X24083Y36283D01*
X22740Y36200D02*
X24000D01*
X21712Y31920D02*
Y32160D01*
Y31920D02*
X21792Y31840D01*
X22380D01*
X22460Y31920D01*
X23906Y31864D02*
Y32090D01*
Y31864D02*
X24000Y31770D01*
X24560D01*
X24654Y31864D01*
X34324Y18934D02*
Y19169D01*
X34240Y18850D02*
X34324Y18934D01*
X33716Y18850D02*
X34240D01*
X33576Y18990D02*
X33716Y18850D01*
X33576Y18990D02*
Y19169D01*
X33777Y32411D02*
Y33181D01*
X21810Y33950D02*
X22350D01*
X24039Y33623D02*
Y33925D01*
X23906Y33490D02*
X24039Y33623D01*
X23906Y33192D02*
Y33490D01*
X24305Y33920D02*
X24570D01*
X24300Y33925D02*
X24305Y33920D01*
X24039Y33925D02*
X24300D01*
X23940Y25280D02*
Y26540D01*
Y25280D02*
X25460Y23760D01*
Y22500D02*
Y23760D01*
X24621Y31760D02*
X24654Y31793D01*
X24621Y31475D02*
Y31760D01*
X24091Y31475D02*
X24621D01*
X22110Y31490D02*
X22370D01*
X22100Y31500D02*
X22110Y31490D01*
X21850Y31500D02*
X22100D01*
X23210Y32090D02*
X23906D01*
X23140Y32160D02*
X23210Y32090D01*
X22460Y32160D02*
X23140D01*
X22370Y31780D02*
X22460Y31870D01*
X22370Y31490D02*
Y31780D01*
D98*
X31777Y32340D02*
D03*
X30990D02*
D03*
X30203D02*
D03*
X29415D02*
D03*
X28628D02*
D03*
X27840D02*
D03*
X27053D02*
D03*
X31772Y33780D02*
D03*
X30985D02*
D03*
X30197D02*
D03*
X29410D02*
D03*
X28623D02*
D03*
X27835D02*
D03*
X27048D02*
D03*
D99*
X26266Y32340D02*
D03*
X26260Y33780D02*
D03*
D100*
X19940Y35120D02*
D03*
D101*
X18940D02*
D03*
X19940Y34120D02*
D03*
X18940D02*
D03*
X19940Y33120D02*
D03*
X18940D02*
D03*
X19940Y32120D02*
D03*
X18940D02*
D03*
X19940Y31120D02*
D03*
X18940D02*
D03*
D102*
X25730Y14840D02*
D03*
Y15840D02*
D03*
Y16840D02*
D03*
X24730Y14840D02*
D03*
Y15840D02*
D03*
Y16840D02*
D03*
X23730Y14840D02*
D03*
Y15840D02*
D03*
Y16840D02*
D03*
X22730Y14840D02*
D03*
Y15840D02*
D03*
Y16840D02*
D03*
X21730Y14840D02*
D03*
Y15840D02*
D03*
Y16840D02*
D03*
D103*
X40467Y30584D02*
D03*
Y33734D02*
D03*
D104*
X19575Y15415D02*
D03*
X40648Y15600D02*
D03*
X19600Y36650D02*
D03*
X40820Y36660D02*
D03*
M02*
