G04*
G04 #@! TF.GenerationSoftware,Altium Limited,Altium Designer,20.2.6 (244)*
G04*
G04 Layer_Color=32768*
%FSLAX24Y24*%
%MOIN*%
G70*
G04*
G04 #@! TF.SameCoordinates,51859F98-D9B2-4489-9200-0AB67A10A6FC*
G04*
G04*
G04 #@! TF.FilePolarity,Positive*
G04*
G01*
G75*
%ADD106C,0.0039*%
%ADD109C,0.0020*%
%ADD110C,0.0020*%
G36*
X19875Y17379D02*
X19757D01*
Y17576D01*
X19875D01*
Y17379D01*
D02*
G37*
G36*
X19363D02*
X19245D01*
Y17576D01*
X19363D01*
Y17379D01*
D02*
G37*
G36*
X19875Y17064D02*
X19757D01*
Y17261D01*
X19875D01*
Y17064D01*
D02*
G37*
G36*
X19363D02*
X19245D01*
Y17261D01*
X19363D01*
Y17064D01*
D02*
G37*
G36*
X19875Y16749D02*
X19757D01*
Y16946D01*
X19875D01*
Y16749D01*
D02*
G37*
G36*
X19363Y16749D02*
X19245D01*
Y16946D01*
X19363D01*
Y16749D01*
D02*
G37*
G36*
X19245Y17891D02*
X19363D01*
Y17694D01*
X19245D01*
Y17891D01*
D01*
D02*
G37*
G36*
X19757D02*
X19875D01*
Y17694D01*
X19757D01*
Y17891D01*
D01*
D02*
G37*
G36*
X19024Y19019D02*
Y19610D01*
X19693D01*
Y19019D01*
X19024D01*
D01*
D02*
G37*
G36*
X20594Y20191D02*
X20122D01*
Y20309D01*
X20594D01*
Y20191D01*
D01*
D02*
G37*
G36*
Y20683D02*
X20122D01*
Y20801D01*
X20594D01*
Y20683D01*
D01*
D02*
G37*
G36*
Y21175D02*
X20122D01*
Y21293D01*
X20594D01*
Y21175D01*
D01*
D02*
G37*
G36*
Y21667D02*
X20122D01*
Y21785D01*
X20594D01*
Y21667D01*
D01*
D02*
G37*
G36*
Y22159D02*
X20122D01*
Y22277D01*
X20594D01*
Y22159D01*
D01*
D02*
G37*
G36*
X19024Y23352D02*
Y23943D01*
X19693D01*
Y23352D01*
X19024D01*
D01*
D02*
G37*
G36*
X20594Y22651D02*
X20122D01*
Y22769D01*
X20594D01*
Y22651D01*
D01*
D02*
G37*
G36*
X19024Y24949D02*
Y25540D01*
X19693D01*
Y24949D01*
X19024D01*
D01*
D02*
G37*
G36*
X20594Y26121D02*
X20122D01*
Y26239D01*
X20594D01*
Y26121D01*
D01*
D02*
G37*
G36*
Y26613D02*
X20122D01*
Y26731D01*
X20594D01*
Y26613D01*
D01*
D02*
G37*
G36*
Y27105D02*
X20122D01*
Y27223D01*
X20594D01*
Y27105D01*
D01*
D02*
G37*
G36*
Y27597D02*
X20122D01*
Y27715D01*
X20594D01*
Y27597D01*
D01*
D02*
G37*
G36*
Y28089D02*
X20122D01*
Y28207D01*
X20594D01*
Y28089D01*
D01*
D02*
G37*
G36*
X19024Y29282D02*
Y29873D01*
X19693D01*
Y29282D01*
X19024D01*
D01*
D02*
G37*
G36*
X20594Y28581D02*
X20122D01*
Y28699D01*
X20594D01*
Y28581D01*
D01*
D02*
G37*
G36*
X26721Y37176D02*
X27312D01*
Y36507D01*
X26721D01*
Y37176D01*
D01*
D02*
G37*
G36*
X30660Y36507D02*
X30070D01*
Y37176D01*
X30660D01*
Y36507D01*
D02*
G37*
G36*
X29487Y35606D02*
X29369D01*
Y36078D01*
X29487D01*
Y35606D01*
D02*
G37*
G36*
X28995D02*
X28877D01*
Y36078D01*
X28995D01*
Y35606D01*
D02*
G37*
G36*
X28503D02*
X28385D01*
Y36078D01*
X28503D01*
Y35606D01*
D02*
G37*
G36*
X28011D02*
X27893D01*
Y36078D01*
X28011D01*
Y35606D01*
D02*
G37*
G36*
X41376Y23348D02*
X40707D01*
Y23939D01*
X41376D01*
Y23348D01*
D02*
G37*
G36*
X40278Y22649D02*
X39806D01*
Y22767D01*
X40278D01*
Y22649D01*
D02*
G37*
G36*
Y22157D02*
X39806D01*
Y22275D01*
X40278D01*
Y22157D01*
D02*
G37*
G36*
Y21665D02*
X39806D01*
Y21783D01*
X40278D01*
Y21665D01*
D02*
G37*
G36*
Y21173D02*
X39806D01*
Y21291D01*
X40278D01*
Y21173D01*
D02*
G37*
G36*
X41376Y20000D02*
X40707D01*
Y20590D01*
X41376D01*
Y20000D01*
D02*
G37*
G36*
X31469Y15982D02*
X31351D01*
Y16454D01*
X31469D01*
Y15982D01*
D02*
G37*
G36*
X30977D02*
X30859D01*
Y16454D01*
X30977D01*
Y15982D01*
D02*
G37*
G36*
X30485D02*
X30367D01*
Y16454D01*
X30485D01*
Y15982D01*
D02*
G37*
G36*
X29993D02*
X29875D01*
Y16454D01*
X29993D01*
Y15982D01*
D02*
G37*
G36*
X29501D02*
X29383D01*
Y16454D01*
X29501D01*
Y15982D01*
D02*
G37*
G36*
X29009D02*
X28891D01*
Y16454D01*
X29009D01*
Y15982D01*
D02*
G37*
G36*
X37227Y15952D02*
X37109D01*
Y16424D01*
X37227D01*
Y15952D01*
D02*
G37*
G36*
X36735D02*
X36617D01*
Y16424D01*
X36735D01*
Y15952D01*
D02*
G37*
G36*
X36243D02*
X36125D01*
Y16424D01*
X36243D01*
Y15952D01*
D02*
G37*
G36*
X35751D02*
X35633D01*
Y16424D01*
X35751D01*
Y15952D01*
D02*
G37*
G36*
X32641Y14884D02*
X32050D01*
Y15553D01*
X32641D01*
Y14884D01*
D02*
G37*
G36*
X28308Y14884D02*
X27717D01*
Y15553D01*
X28308D01*
Y14884D01*
D02*
G37*
G36*
X38398Y14854D02*
X37808D01*
Y15523D01*
X38398D01*
Y14854D01*
D02*
G37*
G36*
X35050Y14854D02*
X34460D01*
Y15523D01*
X35050D01*
Y14854D01*
D02*
G37*
D106*
X24600Y18170D02*
Y19570D01*
X23340Y18170D02*
Y19570D01*
X24600D01*
X23340Y18170D02*
X24600D01*
X33300Y18920D02*
Y20520D01*
Y18920D02*
X34600D01*
Y20520D01*
X33300D02*
X34600D01*
X21436Y31911D02*
Y33511D01*
Y31911D02*
X22736D01*
Y33511D01*
X21436D02*
X22736D01*
X23630Y31841D02*
Y33441D01*
Y31841D02*
X24930D01*
Y33441D01*
X23630D02*
X24930D01*
X33550Y36297D02*
X34810D01*
X33550Y37697D02*
X34810D01*
X33550Y36297D02*
Y37697D01*
X34810Y36297D02*
Y37697D01*
X29830Y23503D02*
X33507Y27180D01*
X26153D02*
X29830Y30857D01*
X26153Y27180D02*
X29830Y23503D01*
Y30857D02*
X33507Y27180D01*
D109*
X24108Y18870D02*
G03*
X24108Y18870I-138J0D01*
G01*
X39363Y37079D02*
G03*
X39363Y37079I-138J0D01*
G01*
X37943Y37069D02*
G03*
X37943Y37069I-138J0D01*
G01*
X36563Y37059D02*
G03*
X36563Y37059I-138J0D01*
G01*
X33980Y24858D02*
G03*
X33980Y24858I-138J0D01*
G01*
X29817Y17725D02*
G03*
X29817Y17725I-138J0D01*
G01*
X28378Y19750D02*
G03*
X28378Y19750I-138J0D01*
G01*
X34088Y19720D02*
G03*
X34088Y19720I-138J0D01*
G01*
X22224Y32711D02*
G03*
X22224Y32711I-138J0D01*
G01*
X23863Y37049D02*
G03*
X23863Y37049I-138J0D01*
G01*
X22510Y37039D02*
G03*
X22510Y37039I-138J0D01*
G01*
X21216Y37049D02*
G03*
X21216Y37049I-138J0D01*
G01*
X24708Y34205D02*
G03*
X24708Y34205I-138J0D01*
G01*
X32180Y31202D02*
G03*
X32180Y31202I-138J0D01*
G01*
X33870Y29592D02*
G03*
X33870Y29592I-138J0D01*
G01*
X34208Y30820D02*
G03*
X34208Y30820I-138J0D01*
G01*
X34338Y21215D02*
G03*
X34338Y21215I-138J0D01*
G01*
X33848Y18168D02*
G03*
X33848Y18168I-138J0D01*
G01*
X34397Y18165D02*
G03*
X34397Y18165I-138J0D01*
G01*
X24178Y34210D02*
G03*
X24178Y34210I-138J0D01*
G01*
X26580Y29938D02*
G03*
X26580Y29938I-138J0D01*
G01*
X26227Y29582D02*
G03*
X26227Y29582I-138J0D01*
G01*
X21948Y34235D02*
G03*
X21948Y34235I-138J0D01*
G01*
X22488D02*
G03*
X22488Y34235I-138J0D01*
G01*
X22507Y31205D02*
G03*
X22507Y31205I-138J0D01*
G01*
X21987Y31215D02*
G03*
X21987Y31215I-138J0D01*
G01*
X24418Y32641D02*
G03*
X24418Y32641I-138J0D01*
G01*
X24758Y31190D02*
G03*
X24758Y31190I-138J0D01*
G01*
X24228D02*
G03*
X24228Y31190I-138J0D01*
G01*
X30327Y17725D02*
G03*
X30327Y17725I-138J0D01*
G01*
X34318Y36997D02*
G03*
X34318Y36997I-138J0D01*
G01*
X31778Y19805D02*
G03*
X31778Y19805I-138J0D01*
G01*
X33789Y21210D02*
G03*
X33789Y21210I-138J0D01*
G01*
X31848Y22650D02*
G03*
X31848Y22650I-138J0D01*
G01*
X27998Y22950D02*
G03*
X27998Y22950I-138J0D01*
G01*
X34350Y25218D02*
G03*
X34350Y25218I-138J0D01*
G01*
X29968Y27180D02*
G03*
X29968Y27180I-138J0D01*
G01*
X23970Y18673D02*
Y19067D01*
X23773Y18870D02*
X24167D01*
X39225Y36883D02*
Y37276D01*
X39028Y37079D02*
X39422D01*
X37805Y36873D02*
Y37266D01*
X37608Y37069D02*
X38002D01*
X36425Y36863D02*
Y37256D01*
X36228Y37059D02*
X36622D01*
X33703Y24997D02*
X33981Y24719D01*
X33703D02*
X33981Y24997D01*
X29679Y17528D02*
Y17922D01*
X29483Y17725D02*
X29876D01*
X28240Y19553D02*
Y19947D01*
X28043Y19750D02*
X28437D01*
X33753Y19720D02*
X34147D01*
X33950Y19523D02*
Y19917D01*
X21889Y32711D02*
X22283D01*
X22086Y32514D02*
Y32908D01*
X23528Y37049D02*
X23922D01*
X23725Y36853D02*
Y37246D01*
X22175Y37039D02*
X22569D01*
X22372Y36843D02*
Y37236D01*
X20881Y37049D02*
X21275D01*
X21078Y36853D02*
Y37246D01*
X24571Y34008D02*
Y34402D01*
X24374Y34205D02*
X24767D01*
X31903Y31063D02*
X32181Y31341D01*
X31903D02*
X32181Y31063D01*
X33593Y29453D02*
X33871Y29731D01*
X33593D02*
X33871Y29453D01*
X33873Y30820D02*
X34267D01*
X34070Y30623D02*
Y31017D01*
X34201Y21018D02*
Y21412D01*
X34004Y21215D02*
X34397D01*
X33710Y17971D02*
Y18364D01*
X33513Y18168D02*
X33907D01*
X34259Y17968D02*
Y18362D01*
X34062Y18165D02*
X34456D01*
X24040Y34013D02*
Y34407D01*
X23843Y34210D02*
X24237D01*
X26303Y30077D02*
X26581Y29799D01*
X26303D02*
X26581Y30077D01*
X25950Y29721D02*
X26228Y29443D01*
X25950D02*
X26228Y29721D01*
X21811Y34038D02*
Y34432D01*
X21614Y34235D02*
X22008D01*
X22351Y34038D02*
Y34432D01*
X22154Y34235D02*
X22548D01*
X22369Y31008D02*
Y31402D01*
X22173Y31205D02*
X22566D01*
X21849Y31018D02*
Y31412D01*
X21653Y31215D02*
X22046D01*
X24083Y32641D02*
X24477D01*
X24280Y32444D02*
Y32838D01*
X24620Y30993D02*
Y31387D01*
X24423Y31190D02*
X24817D01*
X24090Y30993D02*
Y31387D01*
X23893Y31190D02*
X24287D01*
X30189Y17528D02*
Y17922D01*
X29993Y17725D02*
X30386D01*
X33983Y36997D02*
X34377D01*
X34180Y36800D02*
Y37194D01*
X31641Y19608D02*
Y20002D01*
X31444Y19805D02*
X31837D01*
X33651Y21013D02*
Y21407D01*
X33454Y21210D02*
X33848D01*
X31571Y22789D02*
X31849Y22511D01*
X31571D02*
X31849Y22789D01*
X27721Y22811D02*
X27999Y23089D01*
X27721D02*
X27999Y22811D01*
X34073Y25357D02*
X34351Y25079D01*
X34073D02*
X34351Y25357D01*
X29691Y27041D02*
X29969Y27319D01*
X29691D02*
X29969Y27041D01*
D110*
X41873Y20001D02*
Y23939D01*
X18528Y24930D02*
Y29890D01*
Y24930D02*
X20201D01*
X18528Y29890D02*
X20201D01*
X26721Y37673D02*
X30659D01*
X27700Y14388D02*
Y16061D01*
X32660Y14388D02*
Y16061D01*
X27700Y14388D02*
X32660D01*
X34462Y14357D02*
X38398D01*
X18528Y23960D02*
X20201D01*
X18528Y19000D02*
X20201D01*
X18528D02*
Y23960D01*
M02*
