G04*
G04 #@! TF.GenerationSoftware,Altium Limited,Altium Designer,20.2.6 (244)*
G04*
G04 Layer_Color=255*
%FSLAX24Y24*%
%MOIN*%
G70*
G04*
G04 #@! TF.SameCoordinates,51859F98-D9B2-4489-9200-0AB67A10A6FC*
G04*
G04*
G04 #@! TF.FilePolarity,Positive*
G04*
G01*
G75*
G04:AMPARAMS|DCode=19|XSize=74.8mil|YSize=63mil|CornerRadius=15.7mil|HoleSize=0mil|Usage=FLASHONLY|Rotation=0.000|XOffset=0mil|YOffset=0mil|HoleType=Round|Shape=RoundedRectangle|*
%AMROUNDEDRECTD19*
21,1,0.0748,0.0315,0,0,0.0*
21,1,0.0433,0.0630,0,0,0.0*
1,1,0.0315,0.0217,-0.0157*
1,1,0.0315,-0.0217,-0.0157*
1,1,0.0315,-0.0217,0.0157*
1,1,0.0315,0.0217,0.0157*
%
%ADD19ROUNDEDRECTD19*%
%ADD20R,0.0866X0.0315*%
%ADD21R,0.0984X0.0925*%
%ADD22R,0.0236X0.0315*%
%ADD23R,0.0318X0.0340*%
%ADD24R,0.0630X0.1100*%
%ADD25R,0.0300X0.0300*%
%ADD26R,0.0315X0.0866*%
%ADD27R,0.0925X0.0984*%
G04:AMPARAMS|DCode=28|XSize=23.6mil|YSize=63mil|CornerRadius=0mil|HoleSize=0mil|Usage=FLASHONLY|Rotation=45.000|XOffset=0mil|YOffset=0mil|HoleType=Round|Shape=Rectangle|*
%AMROTATEDRECTD28*
4,1,4,0.0139,-0.0306,-0.0306,0.0139,-0.0139,0.0306,0.0306,-0.0139,0.0139,-0.0306,0.0*
%
%ADD28ROTATEDRECTD28*%

%ADD29R,0.0340X0.0318*%
G04:AMPARAMS|DCode=30|XSize=31.8mil|YSize=34mil|CornerRadius=0mil|HoleSize=0mil|Usage=FLASHONLY|Rotation=315.000|XOffset=0mil|YOffset=0mil|HoleType=Round|Shape=Rectangle|*
%AMROTATEDRECTD30*
4,1,4,-0.0233,-0.0008,0.0008,0.0233,0.0233,0.0008,-0.0008,-0.0233,-0.0233,-0.0008,0.0*
%
%ADD30ROTATEDRECTD30*%

%ADD31P,0.0424X4X180.0*%
%ADD32R,0.0433X0.0276*%
%ADD33R,0.1100X0.0630*%
%ADD34R,0.0300X0.0300*%
%ADD35R,0.0177X0.0394*%
%ADD36P,0.0424X4X270.0*%
%ADD37R,0.0709X0.0276*%
%ADD38R,0.0551X0.0472*%
%ADD39R,0.0866X0.0800*%
%ADD40R,0.0551X0.0630*%
%ADD41R,0.0315X0.0315*%
%ADD42R,0.0315X0.0354*%
%ADD43R,0.0394X0.0433*%
%ADD44R,0.0591X0.0531*%
%ADD45R,0.0551X0.0551*%
%ADD46R,0.0472X0.0157*%
%ADD47O,0.0240X0.0080*%
%ADD48O,0.0080X0.0240*%
%ADD49R,0.0138X0.0197*%
G04:AMPARAMS|DCode=50|XSize=9.8mil|YSize=61mil|CornerRadius=0mil|HoleSize=0mil|Usage=FLASHONLY|Rotation=225.000|XOffset=0mil|YOffset=0mil|HoleType=Round|Shape=Round|*
%AMOVALD50*
21,1,0.0512,0.0098,0.0000,0.0000,315.0*
1,1,0.0098,-0.0181,0.0181*
1,1,0.0098,0.0181,-0.0181*
%
%ADD50OVALD50*%

G04:AMPARAMS|DCode=51|XSize=9.8mil|YSize=61mil|CornerRadius=0mil|HoleSize=0mil|Usage=FLASHONLY|Rotation=135.000|XOffset=0mil|YOffset=0mil|HoleType=Round|Shape=Round|*
%AMOVALD51*
21,1,0.0512,0.0098,0.0000,0.0000,225.0*
1,1,0.0098,0.0181,0.0181*
1,1,0.0098,-0.0181,-0.0181*
%
%ADD51OVALD51*%

%ADD52R,0.0315X0.0197*%
%ADD95C,0.0197*%
%ADD98O,0.0400X0.0450*%
%ADD99R,0.0400X0.0400*%
%ADD100C,0.0740*%
%ADD101P,0.0801X8X292.5*%
%ADD102P,0.0801X8X202.5*%
%ADD103C,0.0335*%
%ADD104C,0.0669*%
D19*
X38030Y21240D02*
D03*
X38060Y20040D02*
D03*
X36320Y20060D02*
D03*
X36300Y21260D02*
D03*
X37950Y22470D02*
D03*
X36290Y22430D02*
D03*
X32070Y37450D02*
D03*
Y36050D02*
D03*
D20*
X40018Y21232D02*
D03*
Y21724D02*
D03*
Y22216D02*
D03*
Y22708D02*
D03*
X20382Y26672D02*
D03*
Y26180D02*
D03*
Y28640D02*
D03*
Y28148D02*
D03*
Y27656D02*
D03*
Y27164D02*
D03*
Y21234D02*
D03*
Y21726D02*
D03*
Y22218D02*
D03*
Y22710D02*
D03*
Y20250D02*
D03*
Y20742D02*
D03*
D21*
X41042Y23645D02*
D03*
Y20295D02*
D03*
X19358Y25243D02*
D03*
Y29577D02*
D03*
Y23647D02*
D03*
Y19313D02*
D03*
D22*
X23970Y19313D02*
D03*
X24344Y18420D02*
D03*
X23596D02*
D03*
X33806Y36547D02*
D03*
X34554D02*
D03*
X34180Y37440D02*
D03*
D23*
X23417Y20540D02*
D03*
X24010D02*
D03*
X37550Y28170D02*
D03*
X38143D02*
D03*
X38140Y25960D02*
D03*
X37547D02*
D03*
X37557Y27030D02*
D03*
X38150D02*
D03*
X21440Y36480D02*
D03*
X20847D02*
D03*
X22740Y36490D02*
D03*
X22147D02*
D03*
X24083Y36500D02*
D03*
X23490D02*
D03*
X33777Y31641D02*
D03*
X34370D02*
D03*
Y32411D02*
D03*
X33777D02*
D03*
X34370Y33181D02*
D03*
X33777D02*
D03*
X38990Y36520D02*
D03*
X39583D02*
D03*
X37557D02*
D03*
X38150D02*
D03*
X36180D02*
D03*
X36773D02*
D03*
X34360Y34720D02*
D03*
X33767D02*
D03*
X34380Y33950D02*
D03*
X33787D02*
D03*
D24*
X23940Y26540D02*
D03*
X22290D02*
D03*
X38400Y24250D02*
D03*
X36750D02*
D03*
D25*
X38950Y37080D02*
D03*
X39495Y37079D02*
D03*
X37530Y37070D02*
D03*
X38075Y37069D02*
D03*
X36150Y37060D02*
D03*
X36695Y37059D02*
D03*
X23995Y37049D02*
D03*
X23450Y37050D02*
D03*
X22642Y37039D02*
D03*
X22097Y37040D02*
D03*
X21348Y37049D02*
D03*
X20803Y37050D02*
D03*
X34350Y30820D02*
D03*
X33785Y30821D02*
D03*
D26*
X29428Y35818D02*
D03*
X28936D02*
D03*
X28444D02*
D03*
X27952D02*
D03*
X30426Y16242D02*
D03*
X29934D02*
D03*
X29442D02*
D03*
X28950D02*
D03*
X31410D02*
D03*
X30918D02*
D03*
X37168Y16212D02*
D03*
X36676D02*
D03*
X36184D02*
D03*
X35692D02*
D03*
D27*
X27015Y36842D02*
D03*
X30365D02*
D03*
X28013Y15218D02*
D03*
X32347D02*
D03*
X34755Y15188D02*
D03*
X38105D02*
D03*
D28*
X32600Y23800D02*
D03*
X32266Y23466D02*
D03*
X32934Y24134D02*
D03*
D29*
X24460Y28280D02*
D03*
Y28873D02*
D03*
X21755Y28281D02*
D03*
Y28874D02*
D03*
X22657Y28280D02*
D03*
Y28873D02*
D03*
X23558Y28270D02*
D03*
Y28863D02*
D03*
X36370Y18050D02*
D03*
Y17457D02*
D03*
X37320Y17460D02*
D03*
Y18053D02*
D03*
X38190Y17450D02*
D03*
Y18043D02*
D03*
X35460Y18050D02*
D03*
Y17457D02*
D03*
X25610Y19180D02*
D03*
Y18587D02*
D03*
X27720Y18073D02*
D03*
Y17480D02*
D03*
X28720Y18060D02*
D03*
Y17467D02*
D03*
D30*
X34451Y25799D02*
D03*
X34870Y25380D02*
D03*
D31*
X34040Y24660D02*
D03*
X33641Y25060D02*
D03*
X26640Y29740D02*
D03*
X26241Y30140D02*
D03*
X25891Y29780D02*
D03*
X26290Y29380D02*
D03*
X31908Y22452D02*
D03*
X31509Y22852D02*
D03*
X34410Y25020D02*
D03*
X34011Y25420D02*
D03*
D32*
X22230Y18450D02*
D03*
Y19270D02*
D03*
Y18860D02*
D03*
D33*
X25460Y20850D02*
D03*
Y22500D02*
D03*
D34*
X29679Y17445D02*
D03*
X29680Y18010D02*
D03*
X28240Y19470D02*
D03*
X28241Y20035D02*
D03*
X24571Y34485D02*
D03*
X24570Y33920D02*
D03*
X34201Y21495D02*
D03*
X34200Y20930D02*
D03*
X33710Y17888D02*
D03*
X33711Y18453D02*
D03*
X34259Y17885D02*
D03*
X34260Y18450D02*
D03*
X24040Y34490D02*
D03*
X24039Y33925D02*
D03*
X21811Y34515D02*
D03*
X21810Y33950D02*
D03*
X22351Y34515D02*
D03*
X22350Y33950D02*
D03*
X22369Y30925D02*
D03*
X22370Y31490D02*
D03*
X21849Y30935D02*
D03*
X21850Y31500D02*
D03*
X24620Y30910D02*
D03*
X24621Y31475D02*
D03*
X24090Y30910D02*
D03*
X24091Y31475D02*
D03*
X30189Y17445D02*
D03*
X30190Y18010D02*
D03*
X31641Y20085D02*
D03*
X31640Y19520D02*
D03*
X33651Y21490D02*
D03*
X33651Y20925D02*
D03*
D35*
X34324Y19169D02*
D03*
X33576D02*
D03*
X33950D02*
D03*
X33576Y20271D02*
D03*
X34324D02*
D03*
X22460Y32160D02*
D03*
X21712D02*
D03*
X22086D02*
D03*
X21712Y33262D02*
D03*
X22460D02*
D03*
X24654Y32090D02*
D03*
X23906D02*
D03*
X24280D02*
D03*
X23906Y33192D02*
D03*
X24654D02*
D03*
D36*
X32240Y31400D02*
D03*
X31840Y31001D02*
D03*
X33930Y29790D02*
D03*
X33530Y29391D02*
D03*
X27662Y22752D02*
D03*
X28062Y23151D02*
D03*
D37*
X36283Y31254D02*
D03*
Y29954D02*
D03*
Y30387D02*
D03*
Y30821D02*
D03*
Y31687D02*
D03*
Y32120D02*
D03*
Y32553D02*
D03*
Y32986D02*
D03*
Y33419D02*
D03*
D38*
X36530Y29443D02*
D03*
D39*
X40310D02*
D03*
Y35545D02*
D03*
D40*
X36530Y35230D02*
D03*
D41*
X41050Y18275D02*
D03*
Y16956D02*
D03*
D42*
X41735Y16714D02*
D03*
Y18525D02*
D03*
D43*
X41660Y26350D02*
D03*
Y27531D02*
D03*
D44*
X41211Y25366D02*
D03*
Y28515D02*
D03*
D45*
X40203Y25641D02*
D03*
Y28240D02*
D03*
D46*
X39967Y26429D02*
D03*
Y26685D02*
D03*
Y26941D02*
D03*
Y27196D02*
D03*
Y27452D02*
D03*
D47*
X29330Y20124D02*
D03*
Y19966D02*
D03*
Y19809D02*
D03*
Y19651D02*
D03*
Y19494D02*
D03*
Y19336D02*
D03*
X30570D02*
D03*
Y19494D02*
D03*
Y19651D02*
D03*
Y19809D02*
D03*
Y19966D02*
D03*
Y20124D02*
D03*
D48*
X29556Y19110D02*
D03*
X29714D02*
D03*
X29871D02*
D03*
X30029D02*
D03*
X30186D02*
D03*
X30344D02*
D03*
Y20350D02*
D03*
X30186D02*
D03*
X30029D02*
D03*
X29871D02*
D03*
X29714D02*
D03*
X29556D02*
D03*
D49*
X30226Y22180D02*
D03*
X29970D02*
D03*
X29714D02*
D03*
X29458D02*
D03*
Y21550D02*
D03*
X29714D02*
D03*
X29970D02*
D03*
X30226D02*
D03*
D50*
X30317Y24605D02*
D03*
X30456Y24744D02*
D03*
X30596Y24883D02*
D03*
X30735Y25023D02*
D03*
X30874Y25162D02*
D03*
X31013Y25301D02*
D03*
X31152Y25440D02*
D03*
X31292Y25579D02*
D03*
X31431Y25719D02*
D03*
X31570Y25858D02*
D03*
X31709Y25997D02*
D03*
X31848Y26136D02*
D03*
X31987Y26275D02*
D03*
X32127Y26415D02*
D03*
X32266Y26554D02*
D03*
X32405Y26693D02*
D03*
X29343Y29755D02*
D03*
X29204Y29616D02*
D03*
X29065Y29477D02*
D03*
X28925Y29337D02*
D03*
X28786Y29198D02*
D03*
X28647Y29059D02*
D03*
X28508Y28920D02*
D03*
X28369Y28781D02*
D03*
X28229Y28641D02*
D03*
X28090Y28502D02*
D03*
X27951Y28363D02*
D03*
X27812Y28224D02*
D03*
X27673Y28085D02*
D03*
X27534Y27945D02*
D03*
X27394Y27806D02*
D03*
X27255Y27667D02*
D03*
D51*
X32405Y27667D02*
D03*
X32266Y27806D02*
D03*
X32127Y27945D02*
D03*
X31987Y28085D02*
D03*
X31848Y28224D02*
D03*
X31709Y28363D02*
D03*
X31570Y28502D02*
D03*
X31431Y28641D02*
D03*
X31292Y28781D02*
D03*
X31152Y28920D02*
D03*
X31013Y29059D02*
D03*
X30874Y29198D02*
D03*
X30735Y29337D02*
D03*
X30596Y29477D02*
D03*
X30456Y29616D02*
D03*
X30317Y29755D02*
D03*
X27255Y26693D02*
D03*
X27394Y26554D02*
D03*
X27534Y26415D02*
D03*
X27673Y26275D02*
D03*
X27812Y26136D02*
D03*
X27951Y25997D02*
D03*
X28090Y25858D02*
D03*
X28229Y25719D02*
D03*
X28369Y25579D02*
D03*
X28508Y25440D02*
D03*
X28647Y25301D02*
D03*
X28786Y25162D02*
D03*
X28925Y25023D02*
D03*
X29065Y24883D02*
D03*
X29204Y24744D02*
D03*
X29343Y24605D02*
D03*
D52*
X19206Y17792D02*
D03*
X19914D02*
D03*
X19206Y17478D02*
D03*
X19914D02*
D03*
X19206Y17162D02*
D03*
X19914D02*
D03*
X19206Y16848D02*
D03*
X19914D02*
D03*
D95*
X40377Y26151D02*
D03*
Y27731D02*
D03*
D98*
X31777Y32340D02*
D03*
X30990D02*
D03*
X30203D02*
D03*
X29415D02*
D03*
X28628D02*
D03*
X27840D02*
D03*
X27053D02*
D03*
X31772Y33780D02*
D03*
X30985D02*
D03*
X30197D02*
D03*
X29410D02*
D03*
X28623D02*
D03*
X27835D02*
D03*
X27048D02*
D03*
D99*
X26266Y32340D02*
D03*
X26260Y33780D02*
D03*
D100*
X19940Y35120D02*
D03*
D101*
X18940D02*
D03*
X19940Y34120D02*
D03*
X18940D02*
D03*
X19940Y33120D02*
D03*
X18940D02*
D03*
X19940Y32120D02*
D03*
X18940D02*
D03*
X19940Y31120D02*
D03*
X18940D02*
D03*
D102*
X25730Y14840D02*
D03*
Y15840D02*
D03*
Y16840D02*
D03*
X24730Y14840D02*
D03*
Y15840D02*
D03*
Y16840D02*
D03*
X23730Y14840D02*
D03*
Y15840D02*
D03*
Y16840D02*
D03*
X22730Y14840D02*
D03*
Y15840D02*
D03*
Y16840D02*
D03*
X21730Y14840D02*
D03*
Y15840D02*
D03*
Y16840D02*
D03*
D103*
X40467Y30584D02*
D03*
Y33734D02*
D03*
D104*
X19575Y15415D02*
D03*
X40648Y15600D02*
D03*
X19600Y36650D02*
D03*
X40820Y36660D02*
D03*
M02*
